<svg class="svg_logo" xmlns="http://www.w3.org/2000/svg" version="1.1" width="512px" height="512px" style="shape-rendering:geometricPrecision; text-rendering:geometricPrecision; image-rendering:optimizeQuality; fill-rule:evenodd; clip-rule:evenodd" xmlns:xlink="http://www.w3.org/1999/xlink">
<g><path style="opacity:0.961" fill="var(--svg_colr)" id="color" d="M 268.5,30.5 C 330.916,30.0075 393.25,30.5075 455.5,32C 457.894,33.9522 459.394,36.4522 460,39.5C 460.667,69.5 460.667,99.5 460,129.5C 459.209,135.957 455.542,139.29 449,139.5C 442.977,139.328 439.31,136.328 438,130.5C 437.5,104.502 437.333,78.5021 437.5,52.5C 386.5,52.5 335.5,52.5 284.5,52.5C 284.667,78.5021 284.5,104.502 284,130.5C 281.724,137.558 276.891,140.392 269.5,139C 265.23,137.73 262.73,134.896 262,130.5C 261.333,100.167 261.333,69.8333 262,39.5C 262.873,35.4754 265.039,32.4754 268.5,30.5 Z"/></g>
<g><path style="opacity:0.922" fill="var(--svg_colr)" id="color" d="M 314.5,78.5 C 321.654,77.1568 326.487,79.8235 329,86.5C 329.667,95.5 329.667,104.5 329,113.5C 325.402,121.751 319.568,123.917 311.5,120C 308.819,117.806 307.319,114.973 307,111.5C 306.333,103.833 306.333,96.1667 307,88.5C 307.831,83.8085 310.331,80.4752 314.5,78.5 Z"/></g>
<g><path style="opacity:0.926" fill="var(--svg_colr)" id="color" d="M 357.5,78.5 C 364.885,77.6002 369.718,80.6002 372,87.5C 372.891,97.2278 372.557,106.894 371,116.5C 364.333,124.5 357.667,124.5 351,116.5C 349.443,106.894 349.109,97.2278 350,87.5C 350.923,83.0856 353.423,80.0856 357.5,78.5 Z"/></g>
<g><path style="opacity:0.923" fill="var(--svg_colr)" id="color" d="M 399.5,78.5 C 407.834,77.2353 413.001,80.5686 415,88.5C 415.881,97.5623 415.548,106.562 414,115.5C 409.264,122.312 403.431,123.645 396.5,119.5C 394.703,117.869 393.536,115.869 393,113.5C 392.077,103.426 392.41,93.4255 394,83.5C 395.73,81.5981 397.563,79.9314 399.5,78.5 Z"/></g>
<g><path style="opacity:0.947" fill="var(--svg_colr)" id="color" d="M -0.5,276.5 C -0.5,268.833 -0.5,261.167 -0.5,253.5C 4.48046,232.207 16.3138,215.874 35,204.5C 39.1759,168.995 58.6759,147.495 93.5,140C 128.278,136.967 153.112,151.133 168,182.5C 170.559,189.628 172.226,196.962 173,204.5C 203.067,223.645 214.067,250.645 206,285.5C 200.502,303.165 189.669,316.498 173.5,325.5C 171.953,337.642 168.12,348.975 162,359.5C 155.953,365.728 149.62,366.062 143,360.5C 141.869,358.275 141.036,355.942 140.5,353.5C 142.739,347.36 145.239,341.36 148,335.5C 149.382,328.018 150.382,320.685 151,313.5C 151.465,312.069 152.299,310.903 153.5,310C 177.889,299.389 188.389,280.889 185,254.5C 182.319,244.157 176.819,235.657 168.5,229C 162.915,225.625 157.415,222.125 152,218.5C 150.303,215.047 149.803,211.547 150.5,208C 147.08,180.746 131.746,165.246 104.5,161.5C 74.5189,165.314 59.0189,182.314 58,212.5C 57.6401,214.608 56.9734,216.608 56,218.5C 47.1056,223.283 39.1056,229.283 32,236.5C 17.3927,257.91 18.5593,278.41 35.5,298C 38.5,300.333 41.5,302.667 44.5,305C 49.7891,306.306 53.9557,309.139 57,313.5C 56.7435,326.808 60.0768,339.141 67,350.5C 67.9842,358.856 64.3175,363.856 56,365.5C 51.6766,365.182 48.3433,363.182 46,359.5C 39.8805,348.975 36.0472,337.642 34.5,325.5C 15.6882,314.189 4.02155,297.855 -0.5,276.5 Z"/></g>
<g><path style="opacity:0.963" fill="var(--svg_colr)" id="color" d="M 196.5,158.5 C 292.501,158.333 388.501,158.5 484.5,159C 488.785,160.729 491.285,163.895 492,168.5C 492.667,252.5 492.667,336.5 492,420.5C 489.413,430.815 483.246,433.649 473.5,429C 471.959,427.421 470.792,425.587 470,423.5C 469.5,342.501 469.333,261.501 469.5,180.5C 378.166,180.667 286.833,180.5 195.5,180C 188.304,175.672 186.804,169.838 191,162.5C 192.5,160.531 194.333,159.198 196.5,158.5 Z"/></g>
<g><path style="opacity:0.958" fill="var(--svg_colr)" id="color" d="M 235.5,210.5 C 243.507,210.334 251.507,210.5 259.5,211C 263.499,211.668 266.332,213.835 268,217.5C 268.667,241.5 268.667,265.5 268,289.5C 266.413,292.756 263.913,294.923 260.5,296C 250.758,296.92 241.092,296.587 231.5,295C 223.5,288.333 223.5,281.667 231.5,275C 236.42,273.75 241.42,273.25 246.5,273.5C 246.5,260.167 246.5,246.833 246.5,233.5C 242.486,233.666 238.486,233.499 234.5,233C 226.696,229.983 224.196,224.483 227,216.5C 229.21,213.432 232.043,211.432 235.5,210.5 Z"/></g>
<g><path style="opacity:0.946" fill="var(--svg_colr)" id="color" d="M 300.5,210.5 C 316.17,210.333 331.837,210.5 347.5,211C 352.655,211.654 355.822,214.487 357,219.5C 357.667,242.167 357.667,264.833 357,287.5C 356.167,292.333 353.333,295.167 348.5,296C 332.167,296.667 315.833,296.667 299.5,296C 294.667,295.167 291.833,292.333 291,287.5C 290.333,264.833 290.333,242.167 291,219.5C 292.462,214.548 295.629,211.548 300.5,210.5 Z M 313.5,233.5 C 320.5,233.5 327.5,233.5 334.5,233.5C 334.5,246.833 334.5,260.167 334.5,273.5C 327.5,273.5 320.5,273.5 313.5,273.5C 313.5,260.167 313.5,246.833 313.5,233.5 Z"/></g>
<g><path style="opacity:0.954" fill="var(--svg_colr)" id="color" d="M 388.5,210.5 C 404.503,210.333 420.503,210.5 436.5,211C 442.118,212.285 445.285,215.785 446,221.5C 446.667,242.833 446.667,264.167 446,285.5C 445.888,289.623 444.055,292.79 440.5,295C 422.899,296.625 405.233,296.959 387.5,296C 384.804,295.31 382.637,293.81 381,291.5C 379.353,266.921 379.02,242.254 380,217.5C 381.851,213.843 384.684,211.51 388.5,210.5 Z M 401.5,233.5 C 408.833,233.5 416.167,233.5 423.5,233.5C 423.5,246.833 423.5,260.167 423.5,273.5C 416.167,273.5 408.833,273.5 401.5,273.5C 401.5,260.167 401.5,246.833 401.5,233.5 Z"/></g>
<g><path style="opacity:0.939" fill="var(--svg_colr)" id="color" d="M 99.5,231.5 C 107.544,229.766 112.71,232.766 115,240.5C 115.667,301.167 115.667,361.833 115,422.5C 113.712,428.321 110.046,431.321 104,431.5C 97.4423,431.273 93.7756,427.94 93,421.5C 92.3333,361.167 92.3333,300.833 93,240.5C 93.8727,236.475 96.0393,233.475 99.5,231.5 Z"/></g>
<g><path style="opacity:0.981" fill="var(--svg_colr)" id="color" d="M 208.5,324.5 C 226.503,324.333 244.503,324.5 262.5,325C 265,326.167 266.833,328 268,330.5C 268.667,354.833 268.667,379.167 268,403.5C 266.833,406 265,407.833 262.5,409C 244.5,409.667 226.5,409.667 208.5,409C 206,407.833 204.167,406 203,403.5C 202.333,379.167 202.333,354.833 203,330.5C 204.36,327.977 206.193,325.977 208.5,324.5 Z M 224.5,346.5 C 231.833,346.5 239.167,346.5 246.5,346.5C 246.5,360.167 246.5,373.833 246.5,387.5C 239.167,387.5 231.833,387.5 224.5,387.5C 224.5,373.833 224.5,360.167 224.5,346.5 Z"/></g>
<g><path style="opacity:0.960" fill="var(--svg_colr)" id="color" d="M 297.5,324.5 C 315.17,324.333 332.836,324.5 350.5,325C 352.624,326.122 354.457,327.622 356,329.5C 357.637,353.437 357.97,377.437 357,401.5C 356.31,404.196 354.81,406.363 352.5,408C 334.257,409.64 315.924,409.973 297.5,409C 293.835,407.332 291.668,404.499 291,400.5C 290.333,378.167 290.333,355.833 291,333.5C 291.873,329.475 294.039,326.475 297.5,324.5 Z M 313.5,346.5 C 320.5,346.5 327.5,346.5 334.5,346.5C 334.5,360.167 334.5,373.833 334.5,387.5C 327.5,387.5 320.5,387.5 313.5,387.5C 313.5,373.833 313.5,360.167 313.5,346.5 Z"/></g>
<g><path style="opacity:0.968" fill="var(--svg_colr)" id="color" d="M 385.5,324.5 C 403.503,324.333 421.503,324.5 439.5,325C 442,326.167 443.833,328 445,330.5C 446.614,353.458 446.947,376.458 446,399.5C 445.194,403.617 443.027,406.784 439.5,409C 421.5,409.667 403.5,409.667 385.5,409C 383,407.833 381.167,406 380,403.5C 379.333,379.167 379.333,354.833 380,330.5C 381.36,327.977 383.193,325.977 385.5,324.5 Z M 401.5,346.5 C 408.833,346.5 416.167,346.5 423.5,346.5C 423.5,360.167 423.5,373.833 423.5,387.5C 416.167,387.5 408.833,387.5 401.5,387.5C 401.5,373.833 401.5,360.167 401.5,346.5 Z"/></g>
<g><path style="opacity:0.983" fill="var(--svg_colr)" id="color" d="M 511.5,464.5 C 511.5,467.833 511.5,471.167 511.5,474.5C 510.023,476.807 508.023,478.64 505.5,480C 338.833,480.667 172.167,480.667 5.5,480C 2.97739,478.64 0.977392,476.807 -0.5,474.5C -0.5,471.167 -0.5,467.833 -0.5,464.5C 1.04602,461.8 3.37935,459.967 6.5,459C 172.5,458.333 338.5,458.333 504.5,459C 507.621,459.967 509.954,461.8 511.5,464.5 Z"/></g>
</svg>
