<svg class="svg_logo" xmlns="http://www.w3.org/2000/svg" version="1.1" width="512px" height="512px" style="shape-rendering:geometricPrecision; text-rendering:geometricPrecision; image-rendering:optimizeQuality; fill-rule:evenodd; clip-rule:evenodd" xmlns:xlink="http://www.w3.org/1999/xlink">
<g><path style="opacity:0.99" fill="var(--svg_colr)" id="color" d="M 38.5,7.5 C 165.5,7.33333 292.5,7.5 419.5,8C 444.833,20.6667 470.167,33.3333 495.5,46C 504.374,54.9976 505.874,65.1643 500,76.5C 498.5,78 497,79.5 495.5,81C 487.833,84.8333 480.167,88.6667 472.5,92.5C 471.5,181.498 471.167,270.498 471.5,359.5C 482.167,359.5 492.833,359.5 503.5,359.5C 503.933,370.91 503.433,382.244 502,393.5C 498.686,400.149 493.519,404.649 486.5,407C 412.167,407.5 337.834,407.667 263.5,407.5C 263.5,418.5 263.5,429.5 263.5,440.5C 276.073,443.239 283.907,450.906 287,463.5C 290.146,480.368 284.312,492.868 269.5,501C 252.774,507.086 238.941,503.252 228,489.5C 219.647,472.331 222.481,457.498 236.5,445C 239.726,442.425 243.393,440.925 247.5,440.5C 247.5,429.5 247.5,418.5 247.5,407.5C 173.166,407.667 98.8326,407.5 24.5,407C 17.4808,404.649 12.3141,400.149 9,393.5C 7.56657,382.244 7.06657,370.91 7.5,359.5C 18.1667,359.5 28.8333,359.5 39.5,359.5C 39.6667,279.499 39.5,199.499 39,119.5C 22.6667,115.167 12.3333,104.833 8,88.5C 7.33333,71.8333 7.33333,55.1667 8,38.5C 12.3489,22.3186 22.5156,11.9852 38.5,7.5 Z M 47.5,23.5 C 60.8333,23.5 74.1667,23.5 87.5,23.5C 87.5,50.1667 87.5,76.8333 87.5,103.5C 72.123,103.899 56.7896,103.399 41.5,102C 30.7963,98.2954 24.9629,90.7954 24,79.5C 23.1264,66.7908 23.4597,54.1242 25,41.5C 28.8808,30.7686 36.3808,24.7686 47.5,23.5 Z M 103.5,23.5 C 108.833,23.5 114.167,23.5 119.5,23.5C 119.5,50.1667 119.5,76.8333 119.5,103.5C 114.167,103.5 108.833,103.5 103.5,103.5C 103.5,76.8333 103.5,50.1667 103.5,23.5 Z M 135.5,23.5 C 226.167,23.5 316.833,23.5 407.5,23.5C 407.5,34.1667 407.5,44.8333 407.5,55.5C 316.833,55.5 226.167,55.5 135.5,55.5C 135.5,44.8333 135.5,34.1667 135.5,23.5 Z M 423.5,29.5 C 444.827,39.2467 465.661,49.9134 486,61.5C 486.92,64.3083 486.087,66.4749 483.5,68C 463.833,77.8333 444.167,87.6667 424.5,97.5C 423.5,74.8431 423.167,52.1765 423.5,29.5 Z M 135.5,71.5 C 226.167,71.5 316.833,71.5 407.5,71.5C 407.5,82.1667 407.5,92.8333 407.5,103.5C 316.833,103.5 226.167,103.5 135.5,103.5C 135.5,92.8333 135.5,82.1667 135.5,71.5 Z M 453.5,101.5 C 455.497,187.16 456.164,273.16 455.5,359.5C 322.167,359.5 188.833,359.5 55.5,359.5C 55.5,279.5 55.5,199.5 55.5,119.5C 176.834,119.667 298.167,119.5 419.5,119C 431.051,113.392 442.384,107.559 453.5,101.5 Z M 87.5,151.5 C 124.833,151.5 162.167,151.5 199.5,151.5C 199.5,172.833 199.5,194.167 199.5,215.5C 162.167,215.5 124.833,215.5 87.5,215.5C 87.5,194.167 87.5,172.833 87.5,151.5 Z M 327.5,200.5 C 351.48,198.339 366.98,208.673 374,231.5C 376.648,255.501 366.482,271.001 343.5,278C 319.499,280.648 303.999,270.482 297,247.5C 294.559,223.474 304.726,207.807 327.5,200.5 Z M 332.5,232.5 C 341.85,232.365 344.517,236.532 340.5,245C 331.956,248.322 328.123,245.489 329,236.5C 329.69,234.65 330.856,233.316 332.5,232.5 Z M 87.5,263.5 C 124.833,263.5 162.167,263.5 199.5,263.5C 199.5,284.833 199.5,306.167 199.5,327.5C 162.167,327.5 124.833,327.5 87.5,327.5C 87.5,306.167 87.5,284.833 87.5,263.5 Z M 23.5,375.5 C 178.167,375.5 332.833,375.5 487.5,375.5C 487.887,380.08 487.053,384.414 485,388.5C 483.352,389.717 481.519,390.55 479.5,391C 330.167,391.667 180.833,391.667 31.5,391C 27,390.5 24.5,388 24,383.5C 23.5026,380.854 23.3359,378.187 23.5,375.5 Z M 250.5,456.5 C 267.765,456.257 273.598,464.257 268,480.5C 261.749,487.011 254.582,488.177 246.5,484C 239.989,477.749 238.823,470.582 243,462.5C 245.114,459.879 247.614,457.879 250.5,456.5 Z"/></g>
<g><path style="opacity:1" fill="var(--svg_colr)" id="color" d="M 71.5,135.5 C 119.5,135.5 167.5,135.5 215.5,135.5C 215.5,167.5 215.5,199.5 215.5,231.5C 167.5,231.5 119.5,231.5 71.5,231.5C 71.5,199.5 71.5,167.5 71.5,135.5 Z M 87.5,151.5 C 87.5,172.833 87.5,194.167 87.5,215.5C 124.833,215.5 162.167,215.5 199.5,215.5C 199.5,194.167 199.5,172.833 199.5,151.5C 162.167,151.5 124.833,151.5 87.5,151.5 Z"/></g>
<g><path style="opacity:0.994" fill="#efbb5d" d="M 324.5,135.5 C 332.917,135.094 341.251,135.594 349.5,137C 356.754,140.323 361.588,145.823 364,153.5C 366.657,156.61 369.991,158.61 374,159.5C 385.987,153.286 397.154,154.453 407.5,163C 419.746,173.418 422.746,186.084 416.5,201C 416.631,203.253 417.131,205.419 418,207.5C 422.765,210.923 427.598,214.256 432.5,217.5C 435.688,220.539 437.855,224.206 439,228.5C 439.667,235.833 439.667,243.167 439,250.5C 437.777,254.615 435.777,258.282 433,261.5C 427.864,264.653 422.864,267.986 418,271.5C 415.969,276.961 416.303,282.295 419,287.5C 420.501,296.659 418.168,304.659 412,311.5C 401.422,324.138 388.756,326.805 374,319.5C 371.929,320.525 369.762,321.358 367.5,322C 364.077,326.765 360.744,331.598 357.5,336.5C 354.461,339.688 350.794,341.855 346.5,343C 338.089,343.905 329.755,343.572 321.5,342C 314.246,338.677 309.412,333.177 307,325.5C 304.343,322.39 301.009,320.39 297,319.5C 285.013,325.714 273.846,324.547 263.5,316C 251.254,305.582 248.254,292.916 254.5,278C 254.369,275.747 253.869,273.581 253,271.5C 248.235,268.077 243.402,264.744 238.5,261.5C 235.312,258.461 233.145,254.794 232,250.5C 231.333,243.167 231.333,235.833 232,228.5C 233.223,224.385 235.223,220.718 238,217.5C 243.136,214.347 248.136,211.014 253,207.5C 255.031,202.039 254.697,196.705 252,191.5C 250.499,182.341 252.832,174.341 259,167.5C 269.578,154.862 282.244,152.195 297,159.5C 301.009,158.61 304.343,156.61 307,153.5C 309.683,144.318 315.517,138.318 324.5,135.5 Z M 327.5,200.5 C 304.726,207.807 294.559,223.474 297,247.5C 303.999,270.482 319.499,280.648 343.5,278C 366.482,271.001 376.648,255.501 374,231.5C 366.98,208.673 351.48,198.339 327.5,200.5 Z M 332.5,232.5 C 330.856,233.316 329.69,234.65 329,236.5C 328.123,245.489 331.956,248.322 340.5,245C 344.517,236.532 341.85,232.365 332.5,232.5 Z"/></g>
<g><path style="opacity:0.966" fill="var(--svg_colr)" id="color" d="M 326.5,183.5 C 360.898,181.759 382.398,197.426 391,230.5C 392.837,265.698 376.67,287.198 342.5,295C 308.246,296.075 287.412,279.908 280,246.5C 278.982,213.171 294.482,192.171 326.5,183.5 Z M 327.5,200.5 C 304.726,207.807 294.559,223.474 297,247.5C 303.999,270.482 319.499,280.648 343.5,278C 366.482,271.001 376.648,255.501 374,231.5C 366.98,208.673 351.48,198.339 327.5,200.5 Z M 332.5,232.5 C 330.856,233.316 329.69,234.65 329,236.5C 328.123,245.489 331.956,248.322 340.5,245C 344.517,236.532 341.85,232.365 332.5,232.5 Z"/></g>
<g><path style="opacity:0.934" fill="var(--svg_colr)" id="color" d="M 328.5,215.5 C 343.367,213.012 353.534,218.678 359,232.5C 361.982,247.376 356.482,257.543 342.5,263C 327.624,265.982 317.457,260.482 312,246.5C 309.146,231.533 314.646,221.199 328.5,215.5 Z M 332.5,232.5 C 330.856,233.316 329.69,234.65 329,236.5C 328.123,245.489 331.956,248.322 340.5,245C 344.517,236.532 341.85,232.365 332.5,232.5 Z"/></g>
<g><path style="opacity:1" fill="var(--svg_colr)" id="color" d="M 71.5,247.5 C 119.5,247.5 167.5,247.5 215.5,247.5C 215.5,279.5 215.5,311.5 215.5,343.5C 167.5,343.5 119.5,343.5 71.5,343.5C 71.5,311.5 71.5,279.5 71.5,247.5 Z M 87.5,263.5 C 87.5,284.833 87.5,306.167 87.5,327.5C 124.833,327.5 162.167,327.5 199.5,327.5C 199.5,306.167 199.5,284.833 199.5,263.5C 162.167,263.5 124.833,263.5 87.5,263.5 Z"/></g>
</svg>
