<svg xmlns="http://www.w3.org/2000/svg" version="1.1" width="512px" height="512px" style="shape-rendering:geometricPrecision; text-rendering:geometricPrecision; image-rendering:optimizeQuality; fill-rule:evenodd; clip-rule:evenodd" xmlns:xlink="http://www.w3.org/1999/xlink">
<g><path style="opacity:0.987" fill="#010101" d="M 85.5,-0.5 C 182.167,-0.5 278.833,-0.5 375.5,-0.5C 378.529,1.37197 380.695,4.03864 382,7.5C 382.333,97.1667 382.667,186.833 383,276.5C 421.551,283.058 448.218,304.392 463,340.5C 463.667,342.833 463.667,345.167 463,347.5C 462.252,349.751 460.752,351.084 458.5,351.5C 455.398,351.846 452.565,351.179 450,349.5C 432.209,306.418 400.042,287.585 353.5,293C 329.957,298.726 311.957,311.893 299.5,332.5C 285.211,357.254 283.711,382.921 295,409.5C 313.911,444.874 343.411,460.708 383.5,457C 392.37,455.433 400.703,452.6 408.5,448.5C 436.848,432.601 452.014,408.268 454,375.5C 455.41,372.211 457.91,370.544 461.5,370.5C 464.561,370.444 466.728,371.778 468,374.5C 468.77,391.091 465.27,406.758 457.5,421.5C 472.859,436.359 488.693,450.693 505,464.5C 507.902,468.2 510.068,472.2 511.5,476.5C 511.5,481.5 511.5,486.5 511.5,491.5C 508.167,501.5 501.5,508.167 491.5,511.5C 486.5,511.5 481.5,511.5 476.5,511.5C 472.683,510.16 469.017,508.326 465.5,506C 449.798,491.296 433.798,476.963 417.5,463C 411.836,464.649 406.169,466.649 400.5,469C 359.398,479.977 324.398,469.977 295.5,439C 284.839,438.5 274.172,438.333 263.5,438.5C 263.667,449.172 263.5,459.839 263,470.5C 261.108,474.058 258.275,476.558 254.5,478C 172.5,478.667 90.5,478.667 8.5,478C 4.72286,476.386 1.72286,473.886 -0.5,470.5C -0.5,342.5 -0.5,214.5 -0.5,86.5C 0.983199,82.8532 3.64987,80.3532 7.5,79C 17.828,78.5002 28.1613,78.3335 38.5,78.5C 38.3335,68.1613 38.5002,57.828 39,47.5C 40.5981,42.9014 43.7647,40.0681 48.5,39C 58.1609,38.5002 67.8276,38.3335 77.5,38.5C 77.1254,27.7779 77.6254,17.1112 79,6.5C 80.6941,3.64238 82.8607,1.30904 85.5,-0.5 Z"/></g>
<g><path style="opacity:1" fill="#dfe9ee" d="M 366.5,14.5 C 366.5,97.8333 366.5,181.167 366.5,264.5C 326.757,266.863 296.424,284.863 275.5,318.5C 269.346,319.167 263.346,319.833 257.5,320.5C 254.5,321.5 252.5,323.5 251.5,326.5C 245.5,327.833 239.5,327.833 233.5,326.5C 232.797,324.284 231.464,322.451 229.5,321C 211.167,320.333 192.833,320.333 174.5,321C 173.333,322.167 172.167,323.333 171,324.5C 170.839,334.876 170.172,345.209 169,355.5C 164.32,370.18 154.487,379.346 139.5,383C 124.17,383.5 108.837,383.667 93.5,383.5C 93.5,260.5 93.5,137.5 93.5,14.5C 184.5,14.5 275.5,14.5 366.5,14.5 Z"/></g>
<g><path style="opacity:1" fill="#bbc3c7" d="M 366.5,14.5 C 367.499,101.998 367.833,189.665 367.5,277.5C 364.833,277.5 362.167,277.5 359.5,277.5C 361.607,276.532 363.941,276.198 366.5,276.5C 366.5,272.5 366.5,268.5 366.5,264.5C 366.5,181.167 366.5,97.8333 366.5,14.5 Z"/></g>
<g><path style="opacity:1" fill="#060502" d="M 252.5,105.5 C 253.167,105.5 253.833,105.5 254.5,105.5C 257.148,105.738 258.982,107.072 260,109.5C 260.5,117.827 260.666,126.16 260.5,134.5C 264.833,134.5 269.167,134.5 273.5,134.5C 293.833,134.5 314.167,134.5 334.5,134.5C 334.5,109.833 334.5,85.1667 334.5,60.5C 314.167,60.5 293.833,60.5 273.5,60.5C 269.167,60.5 264.833,60.5 260.5,60.5C 260.666,66.8421 260.5,73.1754 260,79.5C 258.982,81.9282 257.148,83.2615 254.5,83.5C 253.833,83.5 253.167,83.5 252.5,83.5C 249.358,83.2007 247.191,81.5341 246,78.5C 245.333,70.5 245.333,62.5 246,54.5C 247.442,50.7251 249.942,47.8917 253.5,46C 282.833,45.3333 312.167,45.3333 341.5,46C 344.937,47.1049 347.437,49.2716 349,52.5C 349.667,81.8333 349.667,111.167 349,140.5C 347.833,145 345,147.833 340.5,149C 311.5,149.667 282.5,149.667 253.5,149C 249.942,147.108 247.442,144.275 246,140.5C 245.333,130.167 245.333,119.833 246,109.5C 247.571,107.077 249.737,105.744 252.5,105.5 Z"/></g>
<g><path style="opacity:1" fill="#dee7ec" d="M 70.5,54.5 C 70.3333,169.167 70.5,283.834 71,398.5C 72.1667,402.333 74.6667,404.833 78.5,406C 140.5,406.333 202.5,406.667 264.5,407C 266.636,412.107 268.636,417.274 270.5,422.5C 198.5,422.5 126.5,422.5 54.5,422.5C 54.8317,387.663 54.4984,352.996 53.5,318.5C 52.6987,315.428 50.6987,313.762 47.5,313.5C 46.5476,307.925 46.2143,302.259 46.5,296.5C 49.2328,296.052 51.3994,294.719 53,292.5C 53.5,213.167 53.6667,133.834 53.5,54.5C 59.1667,54.5 64.8333,54.5 70.5,54.5 Z"/></g>
<g><path style="opacity:1" fill="#d2e3e6" d="M 70.5,54.5 C 73.1667,54.5 75.8333,54.5 78.5,54.5C 78.3333,167.5 78.5,280.5 79,393.5C 80.1912,396.534 82.3579,398.201 85.5,398.5C 144.664,399.499 203.998,399.832 263.5,399.5C 263.261,401.467 263.594,403.301 264.5,405C 268.821,405.499 273.154,405.666 277.5,405.5C 279.637,411.242 281.97,416.909 284.5,422.5C 279.833,422.5 275.167,422.5 270.5,422.5C 268.636,417.274 266.636,412.107 264.5,407C 202.5,406.667 140.5,406.333 78.5,406C 74.6667,404.833 72.1667,402.333 71,398.5C 70.5,283.834 70.3333,169.167 70.5,54.5 Z"/></g>
<g><path style="opacity:1" fill="#040404" d="M 115.5,57.5 C 151.502,57.3333 187.502,57.5 223.5,58C 230.249,63.047 229.916,67.7137 222.5,72C 186.833,72.6667 151.167,72.6667 115.5,72C 110.235,67.0757 110.235,62.2423 115.5,57.5 Z"/></g>
<g><path style="opacity:1" fill="#eac32d" d="M 273.5,60.5 C 273.5,85.1667 273.5,109.833 273.5,134.5C 269.167,134.5 264.833,134.5 260.5,134.5C 260.666,126.16 260.5,117.827 260,109.5C 258.982,107.072 257.148,105.738 254.5,105.5C 253.167,98.1667 253.167,90.8333 254.5,83.5C 257.148,83.2615 258.982,81.9282 260,79.5C 260.5,73.1754 260.666,66.8421 260.5,60.5C 264.833,60.5 269.167,60.5 273.5,60.5 Z"/></g>
<g><path style="opacity:1" fill="#f2d331" d="M 273.5,60.5 C 293.833,60.5 314.167,60.5 334.5,60.5C 334.5,85.1667 334.5,109.833 334.5,134.5C 314.167,134.5 293.833,134.5 273.5,134.5C 273.5,109.833 273.5,85.1667 273.5,60.5 Z"/></g>
<g><path style="opacity:1" fill="#dac871" d="M 252.5,83.5 C 253.167,83.5 253.833,83.5 254.5,83.5C 253.167,90.8333 253.167,98.1667 254.5,105.5C 253.833,105.5 253.167,105.5 252.5,105.5C 252.5,98.1667 252.5,90.8333 252.5,83.5 Z"/></g>
<g><path style="opacity:1" fill="#090a0a" d="M 116.5,89.5 C 151.835,89.3333 187.168,89.5 222.5,90C 229.466,93.8463 230.133,98.5129 224.5,104C 187.833,104.667 151.167,104.667 114.5,104C 110.054,98.3971 110.721,93.5638 116.5,89.5 Z"/></g>
<g><path style="opacity:1" fill="#e0eaef" d="M 14.5,94.5 C 20.1667,94.5 25.8333,94.5 31.5,94.5C 31.3333,209.167 31.5,323.834 32,438.5C 32.786,441.583 34.6193,443.749 37.5,445C 107.499,445.5 177.499,445.667 247.5,445.5C 247.5,451.167 247.5,456.833 247.5,462.5C 169.833,462.5 92.1667,462.5 14.5,462.5C 14.5,339.833 14.5,217.167 14.5,94.5 Z"/></g>
<g><path style="opacity:1" fill="#cadbde" d="M 14.5,94.5 C 22.6499,93.5073 30.9832,93.1739 39.5,93.5C 39.3333,159.834 39.5,226.168 40,292.5C 41.5466,294.887 43.7133,296.22 46.5,296.5C 46.2143,302.259 46.5476,307.925 47.5,313.5C 44.0388,313.146 41.5388,314.479 40,317.5C 39.3333,355.167 39.3333,392.833 40,430.5C 41.8917,434.058 44.7251,436.558 48.5,438C 115.166,438.5 181.833,438.667 248.5,438.5C 248.826,446.684 248.492,454.684 247.5,462.5C 247.5,456.833 247.5,451.167 247.5,445.5C 177.499,445.667 107.499,445.5 37.5,445C 34.6193,443.749 32.786,441.583 32,438.5C 31.5,323.834 31.3333,209.167 31.5,94.5C 25.8333,94.5 20.1667,94.5 14.5,94.5 Z"/></g>
<g><path style="opacity:1" fill="#020202" d="M 115.5,122.5 C 151.168,122.333 186.835,122.5 222.5,123C 228.258,125.11 229.758,128.943 227,134.5C 226.097,135.701 224.931,136.535 223.5,137C 187.5,137.667 151.5,137.667 115.5,137C 112.634,135.607 111.301,133.274 111.5,130C 111.603,128.439 111.937,126.939 112.5,125.5C 113.77,124.712 114.77,123.712 115.5,122.5 Z"/></g>
<g><path style="opacity:1" fill="#090a0a" d="M 176.5,185.5 C 212.168,185.333 247.835,185.5 283.5,186C 290.637,189.692 291.304,194.359 285.5,200C 248.833,200.667 212.167,200.667 175.5,200C 171.304,197.019 170.471,193.186 173,188.5C 174.518,187.837 175.685,186.837 176.5,185.5 Z"/></g>
<g><path style="opacity:1" fill="#090a0a" d="M 114.5,227.5 C 157.501,227.333 200.501,227.5 243.5,228C 247.696,230.981 248.529,234.814 246,239.5C 244.581,240.46 243.081,241.293 241.5,242C 199.833,242.667 158.167,242.667 116.5,242C 111.776,239.565 110.276,235.731 112,230.5C 113.045,229.627 113.878,228.627 114.5,227.5 Z"/></g>
<g><path style="opacity:1" fill="#090a0a" d="M 268.5,227.5 C 294.502,227.333 320.502,227.5 346.5,228C 352.09,233.41 351.423,238.077 344.5,242C 319.833,242.667 295.167,242.667 270.5,242C 264.685,237.937 264.018,233.104 268.5,227.5 Z"/></g>
<g><path style="opacity:1" fill="#cfe0e3" d="M 366.5,264.5 C 366.5,268.5 366.5,272.5 366.5,276.5C 363.941,276.198 361.607,276.532 359.5,277.5C 329.709,281.221 306.375,295.387 289.5,320C 278.839,320.5 268.172,320.667 257.5,320.5C 263.346,319.833 269.346,319.167 275.5,318.5C 296.424,284.863 326.757,266.863 366.5,264.5 Z"/></g>
<g><path style="opacity:1" fill="#090a0a" d="M 116.5,268.5 C 169.168,268.333 221.834,268.5 274.5,269C 279.535,272.013 280.702,276.18 278,281.5C 277.25,282.126 276.416,282.626 275.5,283C 221.833,283.667 168.167,283.667 114.5,283C 110.054,277.397 110.721,272.564 116.5,268.5 Z"/></g>
<g><path style="opacity:0.999" fill="#3965be" d="M 458.5,351.5 C 459.908,357.757 460.908,364.091 461.5,370.5C 457.91,370.544 455.41,372.211 454,375.5C 452.014,408.268 436.848,432.601 408.5,448.5C 373.433,455.532 343.6,446.198 319,420.5C 297.656,394.629 291.156,365.296 299.5,332.5C 311.957,311.893 329.957,298.726 353.5,293C 400.042,287.585 432.209,306.418 450,349.5C 452.565,351.179 455.398,351.846 458.5,351.5 Z"/></g>
<g><path style="opacity:1" fill="#020304" d="M 361.5,310.5 C 399.863,309.738 424.03,327.738 434,364.5C 436.323,400.713 420.49,424.879 386.5,437C 352.571,443.118 327.738,430.952 312,400.5C 300.02,367.109 308.52,340.275 337.5,320C 345.063,315.373 353.063,312.206 361.5,310.5 Z"/></g>
<g><path style="opacity:1" fill="#e0eaef" d="M 403.5,410.5 C 368.453,414.589 345.62,399.922 335,366.5C 334.227,358.118 334.394,349.785 335.5,341.5C 351.073,325.195 369.406,321.362 390.5,330C 411.039,340.576 420.539,357.409 419,380.5C 417.753,392.663 412.587,402.663 403.5,410.5 Z"/></g>
<g><path style="opacity:1" fill="#d1e3e6" d="M 233.5,326.5 C 239.5,327.833 245.5,327.833 251.5,326.5C 251.253,329.505 252.253,332.005 254.5,334C 258.7,335.367 263.033,335.867 267.5,335.5C 261.133,350.849 258.8,366.849 260.5,383.5C 230.165,383.667 199.832,383.5 169.5,383C 181.497,369.51 186.83,353.676 185.5,335.5C 199.837,335.667 214.171,335.5 228.5,335C 232.089,333.326 233.755,330.493 233.5,326.5 Z"/></g>
<g><path style="opacity:1" fill="#b3d1d6" d="M 267.5,335.5 C 271.884,335.174 276.217,335.508 280.5,336.5C 274.272,351.537 271.605,367.203 272.5,383.5C 268.5,383.5 264.5,383.5 260.5,383.5C 258.8,366.849 261.133,350.849 267.5,335.5 Z"/></g>
<g><path style="opacity:1" fill="#2f549c" d="M 299.5,332.5 C 291.156,365.296 297.656,394.629 319,420.5C 343.6,446.198 373.433,455.532 408.5,448.5C 400.703,452.6 392.37,455.433 383.5,457C 343.411,460.708 313.911,444.874 295,409.5C 283.711,382.921 285.211,357.254 299.5,332.5 Z"/></g>
<g><path style="opacity:1" fill="#cfe1e4" d="M 335.5,341.5 C 334.394,349.785 334.227,358.118 335,366.5C 345.62,399.922 368.453,414.589 403.5,410.5C 397.07,416.719 389.403,420.886 380.5,423C 349.51,426 330.01,412.5 322,382.5C 319.834,366.499 324.334,352.833 335.5,341.5 Z"/></g>
<g><path style="opacity:1" fill="#b3c6c9" d="M 85.5,398.5 C 148.834,398.333 212.168,398.5 275.5,399C 276.669,401.007 277.335,403.173 277.5,405.5C 273.154,405.666 268.821,405.499 264.5,405C 263.594,403.301 263.261,401.467 263.5,399.5C 203.998,399.832 144.664,399.499 85.5,398.5 Z"/></g>
<g><path style="opacity:1" fill="#a2aaad" d="M 53.5,318.5 C 54.4984,352.996 54.8317,387.663 54.5,422.5C 126.5,422.5 198.5,422.5 270.5,422.5C 275.167,422.5 279.833,422.5 284.5,422.5C 208.238,423.5 131.238,423.833 53.5,423.5C 53.5,388.5 53.5,353.5 53.5,318.5 Z"/></g>
<g><path style="opacity:1" fill="#e5bf2c" d="M 457.5,443.5 C 451.833,449.833 445.833,455.833 439.5,461.5C 436.188,458.854 433.188,455.854 430.5,452.5C 436.5,446.833 442.5,441.167 448.5,435.5C 451.545,438.218 454.545,440.884 457.5,443.5 Z"/></g>
<g><path style="opacity:1" fill="#efd031" d="M 457.5,443.5 C 469.462,453.624 481.295,463.958 493,474.5C 498.685,483.201 497.185,490.368 488.5,496C 483.889,497.007 479.555,496.34 475.5,494C 463.331,483.329 451.331,472.496 439.5,461.5C 445.833,455.833 451.833,449.833 457.5,443.5 Z"/></g>
</svg>
