<svg class="svg_logo" xmlns="http://www.w3.org/2000/svg" version="1.1" width="512px" height="512px" style="shape-rendering:geometricPrecision; text-rendering:geometricPrecision; image-rendering:optimizeQuality; fill-rule:evenodd; clip-rule:evenodd" xmlns:xlink="http://www.w3.org/1999/xlink">
<g><path style="opacity:0.945" fill="var(--svg_colr)" id="color" d="M 311.5,135.5 C 307.173,130.486 302.173,126.153 296.5,122.5C 291.369,127.399 285.369,130.732 278.5,132.5C 283.759,182.138 265.759,220.638 224.5,248C 173.07,274.009 126.57,267.176 85,227.5C 49.8404,184.058 46.1737,138.058 74,89.5C 103.277,49.6212 142.444,33.7878 191.5,42C 203.877,45.1795 215.544,50.0128 226.5,56.5C 235.304,47.1005 245.971,41.4338 258.5,39.5C 285.862,38.5933 303.362,51.26 311,77.5C 312.452,88.1716 311.286,98.505 307.5,108.5C 315.87,116.53 324.87,123.864 334.5,130.5C 343.472,120.899 354.472,117.399 367.5,120C 370.43,121.318 373.43,121.985 376.5,122C 398.333,100.167 420.167,78.3333 442,56.5C 442.667,55.8333 442.667,55.1667 442,54.5C 432.986,45.6525 424.152,36.6525 415.5,27.5C 445.62,19.0533 475.953,11.3866 506.5,4.5C 499.613,35.0466 491.947,65.3799 483.5,95.5C 474.348,86.8478 465.348,78.0144 456.5,69C 455.833,68.3333 455.167,68.3333 454.5,69C 432.667,90.8333 410.833,112.667 389,134.5C 389.015,137.57 389.682,140.57 391,143.5C 393.167,172 380,185.167 351.5,183C 334.021,177.318 325.688,165.152 326.5,146.5C 321.744,142.398 316.744,138.731 311.5,135.5 Z M 480.5,27.5 C 481.5,27.5 482.5,27.5 483.5,27.5C 480.828,39.1894 477.994,50.8561 475,62.5C 466.167,53.6667 457.333,44.8333 448.5,36C 459.37,33.451 470.037,30.6176 480.5,27.5 Z M 166.5,55.5 C 184.723,55.9294 201.556,60.9294 217,70.5C 215.573,79.3873 215.24,88.3873 216,97.5C 216.911,101.901 218.411,106.068 220.5,110C 206.833,123.667 193.167,137.333 179.5,151C 158.931,151.568 149.764,162.068 152,182.5C 157.457,196.482 167.624,201.982 182.5,199C 196.482,193.543 201.982,183.376 199,168.5C 197.626,165.466 196.626,162.466 196,159.5C 207.5,148 219,136.5 230.5,125C 235.657,127.578 240.99,130.245 246.5,133C 251.325,134.895 256.325,135.728 261.5,135.5C 266.502,177.989 251.169,210.822 215.5,234C 177.317,253.627 140.984,250.627 106.5,225C 73.7548,194.52 64.5881,158.02 79,115.5C 96.4012,78.2545 125.568,58.2545 166.5,55.5 Z M 256.5,56.5 C 273.58,54.4524 285.746,61.1191 293,76.5C 297.771,95.1187 291.604,108.619 274.5,117C 255.881,121.771 242.381,115.604 234,98.5C 229.236,77.685 236.736,63.685 256.5,56.5 Z M 354.5,136.5 C 371.765,136.257 377.598,144.257 372,160.5C 365.749,167.011 358.582,168.177 350.5,164C 343.989,157.749 342.823,150.582 347,142.5C 349.114,139.879 351.614,137.879 354.5,136.5 Z M 172.5,168.5 C 181.85,168.365 184.517,172.532 180.5,181C 171.956,184.322 168.123,181.489 169,172.5C 169.69,170.65 170.856,169.316 172.5,168.5 Z"/></g>
<g><path style="opacity:0.994" fill="#efbb5d" d="M 258.5,39.5 C 245.971,41.4338 235.304,47.1005 226.5,56.5C 215.544,50.0128 203.877,45.1795 191.5,42C 142.444,33.7878 103.277,49.6212 74,89.5C 46.1737,138.058 49.8404,184.058 85,227.5C 126.57,267.176 173.07,274.009 224.5,248C 265.759,220.638 283.759,182.138 278.5,132.5C 285.369,130.732 291.369,127.399 296.5,122.5C 302.173,126.153 307.173,130.486 311.5,135.5C 315.211,194.572 292.877,240.739 244.5,274C 230.576,282.807 215.576,288.974 199.5,292.5C 193.9,292.716 188.567,293.716 183.5,295.5C 172.833,295.5 162.167,295.5 151.5,295.5C 146.338,294.269 141.004,293.269 135.5,292.5C 71.8441,275.01 34.6774,233.676 24,168.5C 19.5847,107.5 42.7514,60.3338 93.5,27C 135.445,4.39266 178.779,1.39266 223.5,18C 236.396,23.4437 248.063,30.6104 258.5,39.5 Z M 172.5,168.5 C 170.856,169.316 169.69,170.65 169,172.5C 168.123,181.489 171.956,184.322 180.5,181C 184.517,172.532 181.85,168.365 172.5,168.5 Z"/></g>
<g><path style="opacity:0.979" fill="var(--svg_colr)" id="color" d="M 135.5,292.5 C 141.004,293.269 146.338,294.269 151.5,295.5C 151.5,300.833 151.5,306.167 151.5,311.5C 162.167,311.5 172.833,311.5 183.5,311.5C 183.5,306.167 183.5,300.833 183.5,295.5C 188.567,293.716 193.9,292.716 199.5,292.5C 199.5,298.833 199.5,305.167 199.5,311.5C 205.206,311.829 210.872,311.495 216.5,310.5C 219.785,303.38 225.118,298.547 232.5,296C 253.497,295.5 274.497,295.333 295.5,295.5C 293.196,271.246 303.529,255.413 326.5,248C 348.5,247.333 370.5,247.333 392.5,248C 408.667,252.167 418.833,262.333 423,278.5C 423.499,284.157 423.666,289.824 423.5,295.5C 444.503,295.333 465.503,295.5 486.5,296C 493.519,298.351 498.686,302.851 502,309.5C 503.655,368.442 503.988,427.442 503,486.5C 500.167,494.667 494.667,500.167 486.5,503C 401.833,503.667 317.167,503.667 232.5,503C 225.481,500.649 220.314,496.149 217,489.5C 215.567,478.244 215.067,466.91 215.5,455.5C 210.167,455.5 204.833,455.5 199.5,455.5C 206.137,496.029 189.47,511.529 149.5,502C 142.851,498.686 138.351,493.519 136,486.5C 135.5,476.172 135.334,465.839 135.5,455.5C 119.153,455.167 102.82,455.501 86.5,456.5C 83.2149,463.62 77.8816,468.453 70.5,471C 49.5026,471.5 28.5026,471.667 7.5,471.5C 7.5,423.5 7.5,375.5 7.5,327.5C 28.5026,327.333 49.5026,327.5 70.5,328C 75.3083,329.236 79.3083,331.736 82.5,335.5C 96.5987,319.617 114.265,311.617 135.5,311.5C 135.5,305.167 135.5,298.833 135.5,292.5 Z M 335.5,263.5 C 351.503,263.333 367.503,263.5 383.5,264C 401.022,267.043 409.022,277.543 407.5,295.5C 375.5,295.5 343.5,295.5 311.5,295.5C 310.194,277.511 318.194,266.844 335.5,263.5 Z M 151.5,295.5 C 162.167,295.5 172.833,295.5 183.5,295.5C 183.5,300.833 183.5,306.167 183.5,311.5C 172.833,311.5 162.167,311.5 151.5,311.5C 151.5,306.167 151.5,300.833 151.5,295.5 Z M 391.5,406.5 C 393.988,391.633 388.322,381.466 374.5,376C 364.5,375.333 354.5,375.333 344.5,376C 330.678,381.466 325.012,391.633 327.5,406.5C 306.808,406.199 287.475,401.032 269.5,391C 260.62,385.121 253.454,377.621 248,368.5C 248.064,362.192 246.231,356.526 242.5,351.5C 248.548,341.817 249.048,331.817 244,321.5C 241.463,318.628 238.63,316.128 235.5,314C 236.623,312.956 237.956,312.29 239.5,312C 319.5,311.333 399.5,311.333 479.5,312C 484.309,312.766 486.976,315.599 487.5,320.5C 480.392,376.75 448.392,405.417 391.5,406.5 Z M 134.5,327.5 C 164.169,327.333 193.835,327.5 223.5,328C 230.592,330.159 232.258,334.493 228.5,341C 226.913,341.862 225.246,342.529 223.5,343C 201.5,343.333 179.5,343.667 157.5,344C 153.271,345.115 149.271,346.781 145.5,349C 140.799,353.366 136.466,358.033 132.5,363C 128.856,365.382 124.856,366.882 120.5,367.5C 119.505,372.792 119.172,378.125 119.5,383.5C 124.97,383.754 130.304,383.087 135.5,381.5C 135.5,400.833 135.5,420.167 135.5,439.5C 119.5,439.5 103.5,439.5 87.5,439.5C 87.3334,411.498 87.5,383.498 88,355.5C 95.234,347.596 103.067,340.429 111.5,334C 118.903,330.403 126.569,328.237 134.5,327.5 Z M 23.5,343.5 C 28.8333,343.5 34.1667,343.5 39.5,343.5C 39.5,380.833 39.5,418.167 39.5,455.5C 34.1667,455.5 28.8333,455.5 23.5,455.5C 23.5,418.167 23.5,380.833 23.5,343.5 Z M 55.5,343.5 C 60.0803,343.113 64.4136,343.947 68.5,346C 69.717,347.648 70.5503,349.481 71,351.5C 71.6667,383.5 71.6667,415.5 71,447.5C 70.5,452 68,454.5 63.5,455C 60.854,455.497 58.1873,455.664 55.5,455.5C 55.5,418.167 55.5,380.833 55.5,343.5 Z M 165.5,359.5 C 166.552,359.351 167.552,359.517 168.5,360C 167.339,386.094 167.172,412.261 168,438.5C 170.547,445.882 175.38,451.215 182.5,454.5C 183.665,462.813 183.832,471.147 183,479.5C 182.5,484 180,486.5 175.5,487C 168.285,488.113 161.285,487.446 154.5,485C 153.283,483.352 152.45,481.519 152,479.5C 151.333,441.833 151.333,404.167 152,366.5C 155.975,362.931 160.475,360.597 165.5,359.5 Z M 191.5,359.5 C 202.172,359.333 212.839,359.5 223.5,360C 226.494,360.406 228.661,361.906 230,364.5C 231.634,386.77 231.968,409.103 231,431.5C 230.594,434.494 229.094,436.661 226.5,438C 214.905,439.602 203.238,439.935 191.5,439C 188.506,438.594 186.339,437.094 185,434.5C 183.366,412.23 183.032,389.897 184,367.5C 184.68,362.989 187.18,360.323 191.5,359.5 Z M 327.5,423.5 C 324.779,437.208 329.446,447.375 341.5,454C 352.427,455.597 363.427,455.931 374.5,455C 388.628,449.252 394.295,438.752 391.5,423.5C 419.08,423.528 444.08,415.695 466.5,400C 474.839,393.003 481.673,384.836 487,375.5C 487.98,411.227 487.647,446.894 486,482.5C 484.661,485.094 482.494,486.594 479.5,487C 399.5,487.667 319.5,487.667 239.5,487C 235,486.5 232.5,484 232,479.5C 231.168,471.147 231.335,462.813 232.5,454.5C 239.62,451.215 244.453,445.882 247,438.5C 247.333,424.167 247.667,409.833 248,395.5C 263.489,409.492 281.656,417.992 302.5,421C 310.764,422.575 319.097,423.408 327.5,423.5 Z"/></g>
<g><path style="opacity:0.993" fill="#efbb5d" d="M 391.5,406.5 C 370.167,407.833 348.833,407.833 327.5,406.5C 325.012,391.633 330.678,381.466 344.5,376C 354.5,375.333 364.5,375.333 374.5,376C 388.322,381.466 393.988,391.633 391.5,406.5 Z"/></g>
<g><path style="opacity:0.993" fill="#f0bc5d" d="M 327.5,423.5 C 348.833,423.5 370.167,423.5 391.5,423.5C 394.295,438.752 388.628,449.252 374.5,455C 363.427,455.931 352.427,455.597 341.5,454C 329.446,447.375 324.779,437.208 327.5,423.5 Z"/></g>
</svg>
