<svg xmlns="http://www.w3.org/2000/svg" version="1.1" width="512px" height="512px" style="shape-rendering:geometricPrecision; text-rendering:geometricPrecision; image-rendering:optimizeQuality; fill-rule:evenodd; clip-rule:evenodd" xmlns:xlink="http://www.w3.org/1999/xlink">
<g><path style="opacity:0.987" fill="#fed300" d="M 361.5,-0.5 C 371.5,-0.5 381.5,-0.5 391.5,-0.5C 423.177,3.50556 450.177,16.8389 472.5,39.5C 454.115,56.8841 436.448,74.8841 419.5,93.5C 401.211,75.8723 379.878,71.039 355.5,79C 349.843,81.4934 344.51,84.4934 339.5,88C 312.299,115.368 284.965,142.535 257.5,169.5C 238.812,187.744 233.645,209.411 242,234.5C 244.913,242.003 249.08,248.67 254.5,254.5C 254.631,255.239 254.464,255.906 254,256.5C 236.632,273.701 219.465,291.035 202.5,308.5C 187.726,293.954 176.726,276.954 169.5,257.5C 168.021,250.526 166.521,243.526 165,236.5C 161.832,213.807 163.332,191.473 169.5,169.5C 175.501,152.494 184.334,137.161 196,123.5C 226.167,93.3333 256.333,63.1667 286.5,33C 308.346,14.7433 333.346,3.57664 361.5,-0.5 Z"/></g>
<g><path style="opacity:0.947" fill="#ded7d4" d="M 188.5,8.5 C 199.158,6.90768 205.991,11.241 209,21.5C 211.975,31.7346 214.475,42.0679 216.5,52.5C 214.777,65.0642 207.777,69.8975 195.5,67C 190.572,65.0732 187.406,61.5732 186,56.5C 183.009,45.5379 180.176,34.5379 177.5,23.5C 178.526,16.4063 182.192,11.4063 188.5,8.5 Z"/></g>
<g><path style="opacity:1" fill="#fe9f00" d="M 472.5,39.5 C 494.292,61.4171 507.292,87.7504 511.5,118.5C 511.5,129.167 511.5,139.833 511.5,150.5C 507.94,176.958 497.773,200.625 481,221.5C 449.887,252.613 418.721,283.779 387.5,315C 373.839,326.666 358.506,335.499 341.5,341.5C 342.837,333.817 344.337,326.15 346,318.5C 349.216,296.84 347.383,275.673 340.5,255C 341.056,254.617 341.389,254.117 341.5,253.5C 367.438,228.062 393.272,202.395 419,176.5C 436.753,156.204 440.42,133.537 430,108.5C 427.059,103.067 423.559,98.0671 419.5,93.5C 436.448,74.8841 454.115,56.8841 472.5,39.5 Z"/></g>
<g><path style="opacity:0.974" fill="#ded6d4" d="M 81.5,70.5 C 87.5411,69.5928 92.8744,71.0928 97.5,75C 104.333,81.8333 111.167,88.6667 118,95.5C 124.571,104.488 123.738,112.654 115.5,120C 109.833,123.333 104.167,123.333 98.5,120C 87.9213,111.423 78.7546,101.59 71,90.5C 69.0309,80.7647 72.5309,74.098 81.5,70.5 Z"/></g>
<g><path style="opacity:0.986" fill="#4a696e" d="M 169.5,169.5 C 163.332,191.473 161.832,213.807 165,236.5C 166.521,243.526 168.021,250.526 169.5,257.5C 143.562,282.938 117.728,308.605 92,334.5C 73.844,355.621 70.5106,378.954 82,404.5C 85.2657,409.375 88.7657,414.042 92.5,418.5C 74.1151,435.884 56.4484,453.884 39.5,472.5C 17.1302,450.427 3.79684,423.76 -0.5,392.5C -0.5,381.833 -0.5,371.167 -0.5,360.5C 3.14788,333.534 13.6479,309.534 31,288.5C 61.8333,257.667 92.6667,226.833 123.5,196C 137.161,184.334 152.494,175.501 169.5,169.5 Z"/></g>
<g><path style="opacity:0.989" fill="#4a686e" d="M 257.5,169.5 C 272.976,175.574 287.309,183.74 300.5,194C 303.371,196.703 306.038,199.536 308.5,202.5C 291.194,220.14 273.861,237.807 256.5,255.5C 255.833,255.167 255.167,254.833 254.5,254.5C 249.08,248.67 244.913,242.003 242,234.5C 233.645,209.411 238.812,187.744 257.5,169.5 Z"/></g>
<g><path style="opacity:0.947" fill="#ded7d4" d="M 21.5,177.5 C 35.6044,179.941 49.2711,183.775 62.5,189C 70.6304,197.678 70.2971,206.011 61.5,214C 58.7946,215.872 55.7946,216.705 52.5,216.5C 39.5721,213.935 26.9055,210.435 14.5,206C 6.89354,198.11 6.5602,189.944 13.5,181.5C 15.9909,179.588 18.6575,178.254 21.5,177.5 Z"/></g>
<g><path style="opacity:1" fill="#384949" d="M 308.5,202.5 C 315.886,209.388 322.386,217.055 328,225.5C 333.349,234.528 337.849,243.861 341.5,253.5C 341.389,254.117 341.056,254.617 340.5,255C 347.383,275.673 349.216,296.84 346,318.5C 344.337,326.15 342.837,333.817 341.5,341.5C 335.499,358.506 326.666,373.839 315,387.5C 282.11,421.058 248.61,453.891 214.5,486C 194.828,499.721 173.162,508.221 149.5,511.5C 139.5,511.5 129.5,511.5 119.5,511.5C 88.3361,507.584 61.6694,494.584 39.5,472.5C 56.4484,453.884 74.1151,435.884 92.5,418.5C 110.766,435.146 131.766,439.646 155.5,432C 161.157,429.507 166.49,426.507 171.5,423C 198.701,395.632 226.035,368.465 253.5,341.5C 266.424,330.137 273.09,315.637 273.5,298C 272.931,281.71 267.265,267.543 256.5,255.5C 273.861,237.807 291.194,220.14 308.5,202.5 Z"/></g>
<g><path style="opacity:1" fill="#fe9f00" d="M 254.5,254.5 C 255.167,254.833 255.833,255.167 256.5,255.5C 267.265,267.543 272.931,281.71 273.5,298C 273.09,315.637 266.424,330.137 253.5,341.5C 238.024,335.426 223.691,327.26 210.5,317C 207.629,314.297 204.962,311.464 202.5,308.5C 219.465,291.035 236.632,273.701 254,256.5C 254.464,255.906 254.631,255.239 254.5,254.5 Z"/></g>
<g><path style="opacity:0.947" fill="#d1c5c1" d="M 453.5,294.5 C 468.31,295.952 482.643,299.452 496.5,305C 502.599,310.743 504.099,317.577 501,325.5C 497.697,330.486 493.031,333.153 487,333.5C 475.106,330.568 463.273,327.402 451.5,324C 443.045,318.303 440.878,310.803 445,301.5C 447.441,298.546 450.275,296.213 453.5,294.5 Z"/></g>
<g><path style="opacity:0.977" fill="#d1c5c2" d="M 400.5,388.5 C 406.092,388.087 411.092,389.587 415.5,393C 422.333,399.833 429.167,406.667 436,413.5C 442.338,422.118 441.838,430.284 434.5,438C 428.472,441.265 422.472,441.265 416.5,438C 408.364,430.865 400.53,423.365 393,415.5C 385.489,403.55 387.989,394.55 400.5,388.5 Z"/></g>
<g><path style="opacity:0.947" fill="#d1c5c1" d="M 307.5,442.5 C 314.686,442.508 320.186,445.508 324,451.5C 327.48,463.418 330.646,475.418 333.5,487.5C 331.282,499.214 324.282,504.048 312.5,502C 309.438,500.939 306.938,499.106 305,496.5C 299.289,482.66 295.956,468.327 295,453.5C 297.537,447.785 301.704,444.118 307.5,442.5 Z"/></g>
</svg>
