<svg class="svg_logo" xmlns="http://www.w3.org/2000/svg" version="1.1" width="512px" height="512px" style="shape-rendering:geometricPrecision; text-rendering:geometricPrecision; image-rendering:optimizeQuality; fill-rule:evenodd; clip-rule:evenodd" xmlns:xlink="http://www.w3.org/1999/xlink">
<g><path style="opacity:0.926" fill="var(--svg_colr)" id="color" d="M -0.5,278.5 C -0.5,263.167 -0.5,247.833 -0.5,232.5C 6.07685,169.182 32.0769,115.349 77.5,71C 92.2538,63.8133 104.087,66.9799 113,80.5C 116.528,88.3314 116.195,95.9981 112,103.5C 49.4534,168.705 32.4534,244.371 61,330.5C 72.7614,359.705 89.7614,385.371 112,407.5C 118.866,424.254 114.033,436.087 97.5,443C 90.457,444.281 83.7903,443.281 77.5,440C 32.0769,395.651 6.07685,341.818 -0.5,278.5 Z M 87.5,83.5 C 93.9559,82.222 97.9559,84.722 99.5,91C 98.8037,92.8928 97.9704,94.7262 97,96.5C 44.1713,151.327 23.1713,216.66 34,292.5C 42.3654,339.903 63.3654,380.569 97,414.5C 97.6667,415.833 98.3333,417.167 99,418.5C 98.8451,426.014 95.0117,428.847 87.5,427C 27.1913,365.387 4.69133,291.887 20,206.5C 30.5491,158.719 53.0491,117.719 87.5,83.5 Z"/></g>
<g><path style="opacity:0.927" fill="var(--svg_colr)" id="color" d="M 511.5,232.5 C 511.5,247.833 511.5,263.167 511.5,278.5C 504.923,341.819 478.923,395.652 433.5,440C 418.746,447.187 406.913,444.02 398,430.5C 394.472,422.669 394.805,415.002 399,407.5C 460.018,344.085 477.685,270.085 452,185.5C 443.414,162.984 431.747,142.317 417,123.5C 410.293,116.462 403.96,109.128 398,101.5C 392.606,85.3215 397.772,74.1548 413.5,68C 420.543,66.7189 427.21,67.7189 433.5,71C 478.923,115.348 504.923,169.181 511.5,232.5 Z M 416.5,83.5 C 418.857,83.3367 421.19,83.5034 423.5,84C 483.809,145.613 506.309,219.113 491,304.5C 480.585,352.177 458.085,393.011 423.5,427C 415.988,428.847 412.155,426.014 412,418.5C 412.667,417.167 413.333,415.833 414,414.5C 466.614,359.985 487.614,294.985 477,219.5C 468.924,171.677 447.924,130.677 414,96.5C 410.582,91.3391 411.416,87.0058 416.5,83.5 Z"/></g>
<g><path style="opacity:0.924" fill="var(--svg_colr)" id="color" d="M 131.5,112.5 C 148.897,111.345 158.564,119.345 160.5,136.5C 160.425,141.135 159.258,145.469 157,149.5C 109.771,199.192 99.271,255.858 125.5,319.5C 124.282,326.282 120.282,328.782 113.5,327C 108.147,319.638 104.314,311.471 102,302.5C 88.4289,253.268 95.4289,207.268 123,164.5C 128.861,156.793 135.194,149.46 142,142.5C 145.99,135.487 144.157,130.82 136.5,128.5C 134.701,128.577 133.034,129.077 131.5,130C 84.5379,179.674 69.3712,237.841 86,304.5C 94.8853,334.804 110.719,360.638 133.5,382C 140.798,383.035 144.298,379.869 144,372.5C 139.377,366.208 134.377,360.208 129,354.5C 125.34,344.32 128.84,340.154 139.5,342C 146.754,349.25 153.254,357.083 159,365.5C 163.091,379.806 158.591,390.306 145.5,397C 132.626,400.656 122.126,397.156 114,386.5C 66.0066,330.669 52.1733,267.169 72.5,196C 82.1596,165.998 98.1596,139.998 120.5,118C 123.99,115.588 127.657,113.755 131.5,112.5 Z"/></g>
<g><path style="opacity:0.923" fill="var(--svg_colr)" id="color" d="M 369.5,112.5 C 380.882,111.442 390.049,115.442 397,124.5C 399.423,127.249 401.423,130.249 403,133.5C 402.743,141.887 398.577,144.721 390.5,142C 386.605,137.194 382.272,132.86 377.5,129C 371.525,127.994 367.859,130.494 366.5,136.5C 367.054,138.61 367.888,140.61 369,142.5C 407.581,182.588 422.247,230.255 413,285.5C 406.973,317.893 392.307,345.56 369,368.5C 365.01,375.513 366.843,380.18 374.5,382.5C 376.791,382.378 378.791,381.545 380.5,380C 429.862,326.203 443.362,264.37 421,194.5C 417.214,184.927 412.88,175.593 408,166.5C 406.956,160.209 409.623,156.876 416,156.5C 418.145,156.396 419.979,157.063 421.5,158.5C 447.395,204.026 454.228,252.359 442,303.5C 432.451,339.327 414.285,369.827 387.5,395C 375.932,400.695 365.432,399.195 356,390.5C 348.667,379.833 348.667,369.167 356,358.5C 392.049,322.002 405.716,278.336 397,227.5C 390.878,198.248 377.212,173.248 356,152.5C 348.066,140.34 348.9,128.84 358.5,118C 361.99,115.588 365.657,113.755 369.5,112.5 Z"/></g>
<g><path style="opacity:0.925" fill="var(--svg_colr)" id="color" d="M 178.5,157.5 C 198.526,158.202 207.359,168.536 205,188.5C 204.275,190.949 203.275,193.283 202,195.5C 171.661,227.215 167.327,262.215 189,300.5C 193.097,305.687 197.43,310.687 202,315.5C 209.187,330.254 206.02,342.087 192.5,351C 183.856,354.576 175.523,353.91 167.5,349C 131.771,312.932 119.938,270.099 132,220.5C 138.618,197.751 150.452,178.251 167.5,162C 171.053,159.879 174.72,158.379 178.5,157.5 Z M 180.5,173.5 C 187.52,174.542 190.354,178.542 189,185.5C 159.396,216.853 152.062,252.853 167,293.5C 172.358,305.558 179.691,316.224 189,325.5C 190.174,334.663 186.341,338.163 177.5,336C 142.3,298.324 134.467,255.491 154,207.5C 159.897,195.269 167.731,184.436 177.5,175C 178.737,174.768 179.737,174.268 180.5,173.5 Z"/></g>
<g><path style="opacity:0.926" fill="var(--svg_colr)" id="color" d="M 325.5,157.5 C 331.941,157.288 337.941,158.788 343.5,162C 379.229,198.068 391.062,240.901 379,290.5C 372.382,313.249 360.548,332.749 343.5,349C 331.771,355.704 320.938,354.537 311,345.5C 304.519,335.909 303.852,325.909 309,315.5C 339.339,283.785 343.673,248.785 322,210.5C 317.903,205.313 313.57,200.313 309,195.5C 303.195,183.601 304.695,172.767 313.5,163C 317.284,160.471 321.284,158.638 325.5,157.5 Z M 327.5,173.5 C 332.787,174.264 336.953,176.93 340,181.5C 369.648,218.705 375.315,259.372 357,303.5C 351.103,315.731 343.269,326.564 333.5,336C 324.659,338.163 320.826,334.663 322,325.5C 351.604,294.147 358.938,258.147 344,217.5C 338.642,205.442 331.309,194.776 322,185.5C 320.486,179.877 322.319,175.877 327.5,173.5 Z"/></g>
<g><path style="opacity:0.922" fill="var(--svg_colr)" id="color" d="M 247.5,199.5 C 261.4,198.245 274.234,201.245 286,208.5C 289.568,215.877 287.402,220.211 279.5,221.5C 273.862,219.686 268.195,217.853 262.5,216C 234.573,214.625 218.906,227.792 215.5,255.5C 218.67,282.837 234.003,296.003 261.5,295C 282.887,290.232 294.22,276.899 295.5,255C 295.375,249.668 294.375,244.501 292.5,239.5C 294.151,232.008 298.485,229.841 305.5,233C 308.769,237.204 310.602,242.037 311,247.5C 313.168,276.011 301.335,296.177 275.5,308C 248.566,316.23 226.4,309.397 209,287.5C 196.333,266.167 196.333,244.833 209,223.5C 218.819,210.515 231.652,202.515 247.5,199.5 Z"/></g>
</svg>
