<?xml version="1.0" encoding="UTF-8"?>
<!DOCTYPE svg PUBLIC "-//W3C//DTD SVG 1.1//EN" "http://www.w3.org/Graphics/SVG/1.1/DTD/svg11.dtd">
<svg xmlns="http://www.w3.org/2000/svg" version="1.1" width="512px" height="512px" style="shape-rendering:geometricPrecision; text-rendering:geometricPrecision; image-rendering:optimizeQuality; fill-rule:evenodd; clip-rule:evenodd" xmlns:xlink="http://www.w3.org/1999/xlink">
<g><path style="opacity:0.987" fill="#010101" d="M 17.5,-0.5 C 85.1667,-0.5 152.833,-0.5 220.5,-0.5C 223.234,0.704964 225.901,2.20496 228.5,4C 259.361,34.5278 289.861,65.3611 320,96.5C 320.667,98.5 321.333,100.5 322,102.5C 322.667,151.833 322.667,201.167 322,250.5C 320.59,253.789 318.09,255.456 314.5,255.5C 310.438,255.276 307.605,253.276 306,249.5C 305.5,203.168 305.333,156.835 305.5,110.5C 299.833,110.5 294.167,110.5 288.5,110.5C 269.497,110.667 250.497,110.5 231.5,110C 221.667,106.833 215.167,100.333 212,90.5C 211.5,65.8356 211.333,41.1689 211.5,16.5C 148.166,16.3333 84.8325,16.5 21.5,17C 20,18.5 18.5,20 17,21.5C 16.3333,162.833 16.3333,304.167 17,445.5C 17.6853,448.057 19.1853,449.891 21.5,451C 98.5,451.333 175.5,451.667 252.5,452C 256.628,453.453 258.961,456.286 259.5,460.5C 259.276,464.562 257.276,467.395 253.5,469C 175.833,469.667 98.1667,469.667 20.5,469C 9.83861,466.831 2.83861,460.664 -0.5,450.5C -0.5,306.167 -0.5,161.833 -0.5,17.5C 3.16667,9.16667 9.16667,3.16667 17.5,-0.5 Z"/></g>
<g><path style="opacity:1" fill="#f4f4f4" d="M 288.5,110.5 C 288.825,118.019 288.492,125.352 287.5,132.5C 285.003,128.254 281.336,126.754 276.5,128C 270.998,131.585 265.331,134.919 259.5,138C 255.323,142.954 255.657,147.62 260.5,152C 263.5,152.667 266.5,152.667 269.5,152C 274.167,149.333 278.833,146.667 283.5,144C 285.041,142.629 286.375,141.129 287.5,139.5C 288.833,182.5 288.833,225.5 287.5,268.5C 286.284,266.549 284.618,265.049 282.5,264C 276.991,260.495 271.158,257.662 265,255.5C 255.271,259.146 254.104,264.646 261.5,272C 266.167,274.667 270.833,277.333 275.5,280C 278.5,280.667 281.5,280.667 284.5,280C 285.71,278.961 286.71,277.794 287.5,276.5C 288.641,279.64 288.808,282.973 288,286.5C 248.147,317.708 232.481,358.375 241,408.5C 245.54,427.911 254.04,445.244 266.5,460.5C 264.167,460.5 261.833,460.5 259.5,460.5C 258.961,456.286 256.628,453.453 252.5,452C 175.5,451.667 98.5,451.333 21.5,451C 19.1853,449.891 17.6853,448.057 17,445.5C 16.3333,304.167 16.3333,162.833 17,21.5C 18.5,20 20,18.5 21.5,17C 84.8325,16.5 148.166,16.3333 211.5,16.5C 211.333,41.1689 211.5,65.8356 212,90.5C 215.167,100.333 221.667,106.833 231.5,110C 250.497,110.5 269.497,110.667 288.5,110.5 Z"/></g>
<g><path style="opacity:1" fill="#ced7da" d="M 228.5,29.5 C 249.965,50.465 271.299,71.6317 292.5,93C 272.41,93.9754 252.41,93.6421 232.5,92C 230.951,90.786 229.785,89.286 229,87.5C 228.5,68.1695 228.333,48.8362 228.5,29.5 Z"/></g>
<g><path style="opacity:1" fill="#030302" d="M 213.5,327.5 C 212.506,337.653 212.172,347.986 212.5,358.5C 216.167,358.5 219.833,358.5 223.5,358.5C 229.127,360.588 230.961,364.588 229,370.5C 227.833,371.667 226.667,372.833 225.5,374C 221.179,374.499 216.846,374.666 212.5,374.5C 211.29,393.549 201.29,405.049 182.5,409C 168.167,409.667 153.833,409.667 139.5,409C 121.32,404.653 111.653,393.153 110.5,374.5C 106.486,374.666 102.486,374.499 98.5,374C 94.1392,371.774 92.6392,368.274 94,363.5C 95.0757,360.921 96.909,359.254 99.5,358.5C 103.167,358.5 106.833,358.5 110.5,358.5C 110.828,347.321 110.495,336.321 109.5,325.5C 106.674,298.521 97.1736,274.188 81,252.5C 57.9717,207.169 64.805,167.002 101.5,132C 131.12,109.149 163.453,104.483 198.5,118C 238.225,137.259 257.058,169.093 255,213.5C 253.498,226.176 249.832,238.176 244,249.5C 226.327,272.521 216.16,298.521 213.5,327.5 Z"/></g>
<g><path style="opacity:1" fill="#ccd5d9" d="M 288.5,110.5 C 294.167,110.5 299.833,110.5 305.5,110.5C 305.333,156.835 305.5,203.168 306,249.5C 307.605,253.276 310.438,255.276 314.5,255.5C 314.5,261.833 314.5,268.167 314.5,274.5C 259.338,315.832 243.171,369.165 266,434.5C 270.604,443.382 275.437,452.049 280.5,460.5C 275.833,460.5 271.167,460.5 266.5,460.5C 254.04,445.244 245.54,427.911 241,408.5C 232.481,358.375 248.147,317.708 288,286.5C 288.808,282.973 288.641,279.64 287.5,276.5C 288.833,273.833 288.833,271.167 287.5,268.5C 288.833,225.5 288.833,182.5 287.5,139.5C 288.833,137.167 288.833,134.833 287.5,132.5C 288.492,125.352 288.825,118.019 288.5,110.5 Z"/></g>
<g><path style="opacity:1" fill="#060606" d="M 40.5,127.5 C 43.2706,127.421 45.9373,127.921 48.5,129C 53.1667,131.667 57.8333,134.333 62.5,137C 67.8333,142 67.8333,147 62.5,152C 59.8333,152.667 57.1667,152.667 54.5,152C 49.1667,149 43.8333,146 38.5,143C 32.8589,137.036 33.5256,131.869 40.5,127.5 Z"/></g>
<g><path style="opacity:1" fill="#fcda00" d="M 179.5,129.5 C 186.391,135.211 193.225,141.211 200,147.5C 225.595,179.94 228.262,214.273 208,250.5C 203.056,257.552 198.556,264.219 194.5,270.5C 194.935,264.158 195.102,257.825 195,251.5C 192.045,247.723 188.212,246.557 183.5,248C 176.031,252.637 168.698,257.47 161.5,262.5C 154.338,257.418 147.005,252.585 139.5,248C 132.992,246.249 128.992,248.582 127.5,255C 130.263,278.795 132.596,302.629 134.5,326.5C 134.5,328.167 134.5,329.833 134.5,331.5C 132.167,331.5 129.833,331.5 127.5,331.5C 127.806,328.615 127.473,325.948 126.5,323.5C 125.181,307.558 121.348,292.224 115,277.5C 107.428,262.017 99.0942,247.017 90,232.5C 78.1739,194.648 88.0073,163.815 119.5,140C 138.025,128.062 158.025,124.562 179.5,129.5 Z"/></g>
<g><path style="opacity:1" fill="#060606" d="M 287.5,132.5 C 288.833,134.833 288.833,137.167 287.5,139.5C 286.375,141.129 285.041,142.629 283.5,144C 278.833,146.667 274.167,149.333 269.5,152C 266.5,152.667 263.5,152.667 260.5,152C 255.657,147.62 255.323,142.954 259.5,138C 265.331,134.919 270.998,131.585 276.5,128C 281.336,126.754 285.003,128.254 287.5,132.5 Z"/></g>
<g><path style="opacity:1" fill="#f8bd07" d="M 179.5,129.5 C 219.387,142.269 238.887,169.602 238,211.5C 237.569,219.892 235.569,227.892 232,235.5C 226.731,245.097 221.064,254.43 215,263.5C 203.455,285.055 197.289,308.055 196.5,332.5C 193.833,332.5 191.167,332.5 188.5,332.5C 189.722,311.617 191.722,290.951 194.5,270.5C 198.556,264.219 203.056,257.552 208,250.5C 228.262,214.273 225.595,179.94 200,147.5C 193.225,141.211 186.391,135.211 179.5,129.5 Z"/></g>
<g><path style="opacity:1" fill="#050400" d="M 149.5,145.5 C 153.911,145.021 158.078,145.688 162,147.5C 165.226,151.426 165.226,155.426 162,159.5C 136.189,163.644 121.523,178.644 118,204.5C 112.474,210.158 107.474,209.825 103,203.5C 103.03,182.273 111.863,165.773 129.5,154C 135.904,150.291 142.57,147.458 149.5,145.5 Z"/></g>
<g><path style="opacity:1" fill="#080808" d="M 54.5,255.5 C 65.0504,254.944 68.5504,259.611 65,269.5C 59.4153,273.377 53.5819,276.877 47.5,280C 40.3818,282.112 36.0485,279.612 34.5,272.5C 35.0544,270.39 35.8877,268.39 37,266.5C 43.1505,263.184 48.9838,259.517 54.5,255.5 Z"/></g>
<g><path style="opacity:0.974" fill="#000101" d="M 511.5,367.5 C 511.5,378.167 511.5,388.833 511.5,399.5C 502.296,453.548 471.629,489.382 419.5,507C 412.741,508.715 406.075,510.215 399.5,511.5C 388.833,511.5 378.167,511.5 367.5,511.5C 331.693,506.097 302.693,489.097 280.5,460.5C 275.437,452.049 270.604,443.382 266,434.5C 243.171,369.165 259.338,315.832 314.5,274.5C 347.4,255.062 382.4,250.229 419.5,260C 471.629,277.618 502.296,313.452 511.5,367.5 Z"/></g>
<g><path style="opacity:1" fill="#060606" d="M 287.5,268.5 C 288.833,271.167 288.833,273.833 287.5,276.5C 286.71,277.794 285.71,278.961 284.5,280C 281.5,280.667 278.5,280.667 275.5,280C 270.833,277.333 266.167,274.667 261.5,272C 254.104,264.646 255.271,259.146 265,255.5C 271.158,257.662 276.991,260.495 282.5,264C 284.618,265.049 286.284,266.549 287.5,268.5 Z"/></g>
<g><path style="opacity:1" fill="#01a7f2" d="M 412.5,276.5 C 463.316,307.369 483.816,352.369 474,411.5C 464.487,446.593 443.987,472.926 412.5,490.5C 358.63,501.939 316.796,484.605 287,438.5C 264.491,394.125 268.158,352.125 298,312.5C 329.045,277.874 367.212,265.874 412.5,276.5 Z"/></g>
<g><path style="opacity:1" fill="#f8d600" d="M 146.5,273.5 C 150.262,275.413 153.929,277.579 157.5,280C 160.167,280.667 162.833,280.667 165.5,280C 168.968,278.03 172.301,275.864 175.5,273.5C 175.833,275 176.167,276.5 176.5,278C 174.553,296.151 172.886,314.317 171.5,332.5C 164.833,332.5 158.167,332.5 151.5,332.5C 150.296,312.795 148.63,293.128 146.5,273.5 Z"/></g>
<g><path style="opacity:1" fill="#0275ba" d="M 412.5,276.5 C 458.743,291.246 485.91,322.58 494,370.5C 497.024,423.089 475.191,461.255 428.5,485C 423.255,487.137 417.922,488.97 412.5,490.5C 443.987,472.926 464.487,446.593 474,411.5C 483.816,352.369 463.316,307.369 412.5,276.5 Z"/></g>
<g><path style="opacity:1" fill="#020305" d="M 410.5,425.5 C 398.5,425.5 386.5,425.5 374.5,425.5C 374.5,434.833 374.5,444.167 374.5,453.5C 373.612,460.89 369.612,465.723 362.5,468C 353.5,468.667 344.5,468.667 335.5,468C 329.725,465.616 325.892,461.449 324,455.5C 323.333,410.167 323.333,364.833 324,319.5C 326.167,313.333 330.333,309.167 336.5,307C 361.167,306.333 385.833,306.333 410.5,307C 437.703,311.684 454.203,327.517 460,354.5C 463.521,378.613 456.354,398.78 438.5,415C 430.064,420.978 420.731,424.478 410.5,425.5 Z"/></g>
<g><path style="opacity:1" fill="#a6a6a6" d="M 409.5,324.5 C 386.833,324.5 364.167,324.5 341.5,324.5C 341.5,366.833 341.5,409.167 341.5,451.5C 340.501,409.003 340.168,366.337 340.5,323.5C 363.673,323.169 386.673,323.502 409.5,324.5 Z"/></g>
<g><path style="opacity:1" fill="#f1f1f1" d="M 409.5,324.5 C 424.422,326.576 434.922,334.576 441,348.5C 445.599,364.261 443.932,379.261 436,393.5C 430.406,400.71 423.24,405.543 414.5,408C 397.211,409.262 379.877,409.929 362.5,410C 360.622,411.543 359.122,413.376 358,415.5C 357.5,427.495 357.333,439.495 357.5,451.5C 352.167,451.5 346.833,451.5 341.5,451.5C 341.5,409.167 341.5,366.833 341.5,324.5C 364.167,324.5 386.833,324.5 409.5,324.5 Z"/></g>
<g><path style="opacity:1" fill="#948002" d="M 126.5,323.5 C 127.473,325.948 127.806,328.615 127.5,331.5C 129.833,331.5 132.167,331.5 134.5,331.5C 134.5,329.833 134.5,328.167 134.5,326.5C 135.461,328.265 135.795,330.265 135.5,332.5C 132.5,332.5 129.5,332.5 126.5,332.5C 126.5,329.5 126.5,326.5 126.5,323.5 Z"/></g>
<g><path style="opacity:1" fill="#b9b9b9" d="M 109.5,325.5 C 110.495,336.321 110.828,347.321 110.5,358.5C 106.833,358.5 103.167,358.5 99.5,358.5C 102.625,357.521 105.958,357.187 109.5,357.5C 109.5,346.833 109.5,336.167 109.5,325.5 Z"/></g>
<g><path style="opacity:1" fill="#8b8b8b" d="M 213.5,327.5 C 213.5,337.5 213.5,347.5 213.5,357.5C 217.042,357.187 220.375,357.521 223.5,358.5C 219.833,358.5 216.167,358.5 212.5,358.5C 212.172,347.986 212.506,337.653 213.5,327.5 Z"/></g>
<g><path style="opacity:1" fill="#050606" d="M 363.5,340.5 C 376.837,340.333 390.171,340.5 403.5,341C 418.776,344.393 426.276,353.893 426,369.5C 423.947,380.816 417.447,387.983 406.5,391C 391.833,391.667 377.167,391.667 362.5,391C 360.274,389.773 358.774,387.939 358,385.5C 357.333,372.833 357.333,360.167 358,347.5C 358.967,344.379 360.8,342.046 363.5,340.5 Z"/></g>
<g><path style="opacity:1" fill="#7e8d93" d="M 178.5,349.5 C 178.667,360.172 178.5,370.839 178,381.5C 176.973,384.754 175.473,387.754 173.5,390.5C 162.854,391.499 152.187,391.832 141.5,391.5C 134.691,390.195 130.191,386.195 128,379.5C 127.5,369.506 127.334,359.506 127.5,349.5C 144.5,349.5 161.5,349.5 178.5,349.5 Z"/></g>
<g><path style="opacity:1" fill="#535b5f" d="M 178.5,349.5 C 184.167,349.5 189.833,349.5 195.5,349.5C 195.666,359.506 195.5,369.506 195,379.5C 192.648,386.517 187.815,390.684 180.5,392C 167.327,392.827 154.327,392.66 141.5,391.5C 152.187,391.832 162.854,391.499 173.5,390.5C 175.473,387.754 176.973,384.754 178,381.5C 178.5,370.839 178.667,360.172 178.5,349.5 Z"/></g>
<g><path style="opacity:1" fill="#01577f" d="M 402.5,358.5 C 393.5,358.5 384.5,358.5 375.5,358.5C 375.5,363.833 375.5,369.167 375.5,374.5C 384.5,374.5 393.5,374.5 402.5,374.5C 393.348,375.494 384.015,375.827 374.5,375.5C 374.5,369.5 374.5,363.5 374.5,357.5C 384.015,357.173 393.348,357.506 402.5,358.5 Z"/></g>
<g><path style="opacity:1" fill="#01a7f2" d="M 402.5,358.5 C 406.658,359.438 408.992,362.104 409.5,366.5C 408.554,370.442 406.221,373.109 402.5,374.5C 393.5,374.5 384.5,374.5 375.5,374.5C 375.5,369.167 375.5,363.833 375.5,358.5C 384.5,358.5 393.5,358.5 402.5,358.5 Z"/></g>
<g><path style="opacity:1" fill="#014462" d="M 410.5,425.5 C 399.012,426.495 387.345,426.828 375.5,426.5C 375.827,435.682 375.493,444.682 374.5,453.5C 374.5,444.167 374.5,434.833 374.5,425.5C 386.5,425.5 398.5,425.5 410.5,425.5 Z"/></g>
</svg>
