<?xml version="1.0" encoding="UTF-8"?>
<!DOCTYPE svg PUBLIC "-//W3C//DTD SVG 1.1//EN" "http://www.w3.org/Graphics/SVG/1.1/DTD/svg11.dtd">
<svg xmlns="http://www.w3.org/2000/svg" version="1.1" width="512px" height="512px" style="shape-rendering:geometricPrecision; text-rendering:geometricPrecision; image-rendering:optimizeQuality; fill-rule:evenodd; clip-rule:evenodd" xmlns:xlink="http://www.w3.org/1999/xlink">
<g><path style="opacity:0.987" fill="#010100" d="M 138.5,-0.5 C 257.167,-0.5 375.833,-0.5 494.5,-0.5C 500.294,2.46914 504.127,7.13581 506,13.5C 506.667,174.833 506.667,336.167 506,497.5C 504.127,503.864 500.294,508.531 494.5,511.5C 355.833,511.5 217.167,511.5 78.5,511.5C 55.0301,501.059 48.0301,483.892 57.5,460C 35.7093,458.042 23.7093,446.209 21.5,424.5C 22.8945,407.614 31.5612,396.447 47.5,391C 53.1667,390.667 58.8333,390.333 64.5,390C 58.2419,378.359 57.9086,366.525 63.5,354.5C 46.2657,355.14 33.4324,348.14 25,333.5C 18.4589,316.238 22.2922,301.738 36.5,290C 40.2807,287.775 44.2807,286.109 48.5,285C 61.5,284.667 74.5,284.333 87.5,284C 44.8081,261.623 18.3081,226.789 8,179.5C -2.32097,112.074 20.5124,59.2409 76.5,21C 95.7784,9.51955 116.445,2.35288 138.5,-0.5 Z"/></g>
<g><path style="opacity:1" fill="#cac2c0" d="M 489.5,15.5 C 407.833,15.5 326.167,15.5 244.5,15.5C 237.646,15.176 230.979,15.5093 224.5,16.5C 223.711,16.2172 223.044,15.7172 222.5,15C 311.668,14.1676 400.668,14.3343 489.5,15.5 Z"/></g>
<g><path style="opacity:1" fill="#facf2a" d="M 286.5,206.5 C 284.405,211.027 282.072,215.361 279.5,219.5C 276.786,218.137 274.119,218.304 271.5,220C 238.063,268.877 191.73,289.877 132.5,283C 83.8402,272.778 49.6735,244.945 30,199.5C 9.84121,139.968 22.6745,88.8015 68.5,46C 111.881,12.2791 159.214,5.61243 210.5,26C 250.105,44.6135 275.605,75.1135 287,117.5C 293.119,145.241 291.285,172.408 281.5,199C 281.831,202.48 283.498,204.98 286.5,206.5 Z"/></g>
<g><path style="opacity:1" fill="#e9ded8" d="M 224.5,16.5 C 230.979,15.5093 237.646,15.176 244.5,15.5C 265.373,25.3761 283.54,39.0428 299,56.5C 301.945,60.7514 305.112,64.7514 308.5,68.5C 309.872,69.5116 311.205,70.5116 312.5,71.5C 311.624,71.3691 310.957,71.7025 310.5,72.5C 318.527,84.7221 324.527,97.8888 328.5,112C 328.836,113.03 329.503,113.53 330.5,113.5C 325.621,116.34 324.454,120.34 327,125.5C 328.488,127.16 330.321,128.16 332.5,128.5C 338.061,190.097 315.395,237.931 264.5,272C 255.718,276.861 246.718,281.028 237.5,284.5C 232.489,284.666 227.489,284.499 222.5,284C 248.076,271.425 268.243,252.925 283,228.5C 284.02,224.553 282.853,221.553 279.5,219.5C 282.072,215.361 284.405,211.027 286.5,206.5C 290.684,207.296 293.85,205.963 296,202.5C 317.417,135.992 302.251,79.4917 250.5,33C 242.312,26.7399 233.646,21.2399 224.5,16.5 Z"/></g>
<g><path style="opacity:1" fill="#fdf4f2" d="M 244.5,15.5 C 326.167,15.5 407.833,15.5 489.5,15.5C 490.5,129.999 490.833,244.665 490.5,359.5C 486.45,350.96 479.783,345.46 470.5,343C 463.508,342.5 456.508,342.334 449.5,342.5C 444.673,340.503 439.673,339.003 434.5,338C 417.5,337.333 400.5,337.333 383.5,338C 380.461,339.577 379.128,342.077 379.5,345.5C 374.167,345.5 368.833,345.5 363.5,345.5C 363.673,341.83 362.007,339.33 358.5,338C 343.837,337.5 329.17,337.333 314.5,337.5C 324.849,322.843 323.516,309.343 310.5,297C 301.156,292.114 291.156,290.28 280.5,291.5C 275.377,288.068 269.71,285.901 263.5,285C 254.84,284.5 246.173,284.334 237.5,284.5C 246.718,281.028 255.718,276.861 264.5,272C 315.395,237.931 338.061,190.097 332.5,128.5C 377.835,128.667 423.168,128.5 468.5,128C 474.292,125.91 475.792,122.076 473,116.5C 472.097,115.299 470.931,114.465 469.5,114C 423.168,113.5 376.835,113.333 330.5,113.5C 329.503,113.53 328.836,113.03 328.5,112C 324.527,97.8888 318.527,84.7221 310.5,72.5C 310.957,71.7025 311.624,71.3691 312.5,71.5C 364.834,71.6667 417.168,71.5 469.5,71C 475.209,67.4546 475.875,63.1213 471.5,58C 418.558,56.3465 365.558,56.0132 312.5,57C 308.884,59.9004 307.551,63.7338 308.5,68.5C 305.112,64.7514 301.945,60.7514 299,56.5C 283.54,39.0428 265.373,25.3761 244.5,15.5 Z"/></g>
<g><path style="opacity:1" fill="#050401" d="M 56.5,110.5 C 60.594,109.705 63.7607,111.038 66,114.5C 65.1162,121.181 63.7829,127.847 62,134.5C 57.7876,180.587 75.9543,214.42 116.5,236C 122.254,238.715 128.254,240.548 134.5,241.5C 174.135,249.229 206.635,237.229 232,205.5C 257.658,166.044 256.658,127.377 229,89.5C 202.399,60.2312 169.899,49.8979 131.5,58.5C 108.995,64.5032 90.9954,77.0032 77.5,96C 74.2103,97.7348 70.877,97.9015 67.5,96.5C 64.964,93.9928 64.1307,90.9928 65,87.5C 94.1018,48.6823 132.602,33.8489 180.5,43C 228.284,56.3796 256.451,87.5463 265,136.5C 267.969,187.464 247.135,224.964 202.5,249C 157.869,267.673 117.203,261.34 80.5,230C 48.4936,196.806 38.9936,157.972 52,113.5C 53.129,111.859 54.629,110.859 56.5,110.5 Z"/></g>
<g><path style="opacity:1" fill="#fde39e" d="M 134.5,241.5 C 91.2658,204.236 79.0991,158.57 98,104.5C 106.076,86.4212 117.91,71.2545 133.5,59C 132.906,58.5357 132.239,58.369 131.5,58.5C 169.899,49.8979 202.399,60.2312 229,89.5C 256.658,127.377 257.658,166.044 232,205.5C 206.635,237.229 174.135,249.229 134.5,241.5 Z"/></g>
<g><path style="opacity:1" fill="#030303" d="M 312.5,71.5 C 311.205,70.5116 309.872,69.5116 308.5,68.5C 307.551,63.7338 308.884,59.9004 312.5,57C 365.558,56.0132 418.558,56.3465 471.5,58C 475.875,63.1213 475.209,67.4546 469.5,71C 417.168,71.5 364.834,71.6667 312.5,71.5 Z"/></g>
<g><path style="opacity:1" fill="#fcdb80" d="M 131.5,58.5 C 132.239,58.369 132.906,58.5357 133.5,59C 117.91,71.2545 106.076,86.4212 98,104.5C 79.0991,158.57 91.2658,204.236 134.5,241.5C 128.254,240.548 122.254,238.715 116.5,236C 75.9543,214.42 57.7876,180.587 62,134.5C 63.7829,127.847 65.1162,121.181 66,114.5C 63.7607,111.038 60.594,109.705 56.5,110.5C 58.2184,109.776 60.0517,109.109 62,108.5C 64.1189,104.598 65.9523,100.598 67.5,96.5C 70.877,97.9015 74.2103,97.7348 77.5,96C 90.9954,77.0032 108.995,64.5032 131.5,58.5 Z"/></g>
<g><path style="opacity:1" fill="#050403" d="M 153.5,63.5 C 157.548,63.4411 160.715,65.1078 163,68.5C 163.5,75.8258 163.666,83.1591 163.5,90.5C 172.446,90.0928 180.28,92.7595 187,98.5C 188.751,105.008 186.418,109.008 180,110.5C 174.996,108.25 169.829,106.417 164.5,105C 156.252,103.462 148.585,104.796 141.5,109C 135.688,117.218 136.355,124.885 143.5,132C 154.868,137.341 166.201,142.674 177.5,148C 189.947,158.941 193.78,172.441 189,188.5C 185.099,201.233 176.599,208.899 163.5,211.5C 163.666,217.509 163.499,223.509 163,229.5C 159.219,236.39 154.552,237.056 149,231.5C 148.667,225.167 148.333,218.833 148,212.5C 136.931,211.299 127.597,206.632 120,198.5C 118,194.5 118,190.5 120,186.5C 121.47,184.848 123.303,183.848 125.5,183.5C 130.948,187.106 136.281,190.939 141.5,195C 150.443,197.483 159.11,196.817 167.5,193C 175.627,184.484 176.461,175.317 170,165.5C 168.442,163.641 166.609,162.141 164.5,161C 153.206,156.237 142.206,150.904 131.5,145C 119.815,133.08 117.649,119.58 125,104.5C 130.577,96.1253 138.41,91.4586 148.5,90.5C 148.334,82.8261 148.5,75.1594 149,67.5C 150.397,65.9297 151.897,64.5964 153.5,63.5 Z"/></g>
<g><path style="opacity:1" fill="#000000" d="M 330.5,113.5 C 376.835,113.333 423.168,113.5 469.5,114C 470.931,114.465 472.097,115.299 473,116.5C 475.792,122.076 474.292,125.91 468.5,128C 423.168,128.5 377.835,128.667 332.5,128.5C 330.321,128.16 328.488,127.16 327,125.5C 324.454,120.34 325.621,116.34 330.5,113.5 Z"/></g>
<g><path style="opacity:1" fill="#040404" d="M 446.5,161.5 C 451.223,160.553 455.056,161.886 458,165.5C 463.333,180.833 468.667,196.167 474,211.5C 474.671,219.159 471.171,222.326 463.5,221C 462.584,220.626 461.75,220.126 461,219.5C 457.773,210.049 454.273,200.715 450.5,191.5C 436.734,223.633 423.067,255.8 409.5,288C 405.833,290 402.167,290 398.5,288C 382.305,276.306 365.972,264.806 349.5,253.5C 338.359,261.474 327.359,269.641 316.5,278C 309.176,282.594 304.843,280.76 303.5,272.5C 303.326,270.307 303.993,268.473 305.5,267C 318.117,258.051 330.45,248.717 342.5,239C 345.459,236.67 348.793,236.004 352.5,237C 368.362,248.361 384.362,259.528 400.5,270.5C 412.642,242.385 424.642,214.218 436.5,186C 426.259,190.784 415.925,195.618 405.5,200.5C 399.412,199.23 397.245,195.563 399,189.5C 400.558,187.641 402.391,186.141 404.5,185C 418.922,177.704 432.922,169.87 446.5,161.5 Z"/></g>
<g><path style="opacity:1" fill="#eadfd9" d="M 280.5,291.5 C 291.156,290.28 301.156,292.114 310.5,297C 323.516,309.343 324.849,322.843 314.5,337.5C 305.808,337.831 297.141,337.498 288.5,336.5C 297.344,319.289 294.678,304.289 280.5,291.5 Z"/></g>
<g><path style="opacity:1" fill="#e8a308" d="M 263.5,300.5 C 197.83,300.167 132.163,300.5 66.5,301.5C 63.4218,317.509 69.4218,328.675 84.5,335C 146.184,335.815 207.851,335.648 269.5,334.5C 268.158,335.793 266.491,336.626 264.5,337C 193.5,337.667 122.5,337.667 51.5,337C 37.9387,330.716 34.4387,320.883 41,307.5C 43.9276,303.619 47.7609,301.119 52.5,300C 123.001,299.168 193.335,299.335 263.5,300.5 Z"/></g>
<g><path style="opacity:1" fill="#fcc102" d="M 263.5,300.5 C 276.468,304.662 280.968,313.328 277,326.5C 275.169,329.855 272.669,332.522 269.5,334.5C 207.851,335.648 146.184,335.815 84.5,335C 69.4218,328.675 63.4218,317.509 66.5,301.5C 132.163,300.5 197.83,300.167 263.5,300.5 Z"/></g>
<g><path style="opacity:1" fill="#e9ded9" d="M 449.5,342.5 C 456.508,342.334 463.508,342.5 470.5,343C 479.783,345.46 486.45,350.96 490.5,359.5C 490.5,366.833 490.5,374.167 490.5,381.5C 486.255,390.888 478.921,396.388 468.5,398C 463.177,398.499 457.844,398.666 452.5,398.5C 465.828,384.762 467.995,369.429 459,352.5C 456.304,348.639 453.137,345.306 449.5,342.5 Z"/></g>
<g><path style="opacity:1" fill="#fcc102" d="M 363.5,345.5 C 368.833,345.5 374.167,345.5 379.5,345.5C 379.444,348.561 380.778,350.728 383.5,352C 400.5,352.333 417.5,352.667 434.5,353C 446.652,356.8 451.485,364.967 449,377.5C 446.833,382.551 443.333,386.218 438.5,388.5C 376.775,388.989 315.108,388.489 253.5,387C 239.743,380.318 234.409,369.485 237.5,354.5C 277.665,353.833 317.665,353.167 357.5,352.5C 360.932,351.401 362.932,349.067 363.5,345.5 Z"/></g>
<g><path style="opacity:1" fill="#c79702" d="M 89.5,353.5 C 125.669,352.17 162.002,352.17 198.5,353.5C 198.376,354.107 198.043,354.44 197.5,354.5C 166.338,353.502 135.004,353.168 103.5,353.5C 98.8333,353.5 94.1667,353.5 89.5,353.5 Z"/></g>
<g><path style="opacity:1" fill="#eca409" d="M 89.5,353.5 C 94.1667,353.5 98.8333,353.5 103.5,353.5C 100.654,368.64 105.988,379.807 119.5,387C 132.767,388.14 146.101,388.64 159.5,388.5C 172.185,388.499 184.519,387.832 196.5,386.5C 197.391,387.261 198.058,388.261 198.5,389.5C 161.838,390.667 125.171,390.833 88.5,390C 77.0671,385.024 72.9004,376.524 76,364.5C 78.5861,358.408 83.0861,354.741 89.5,353.5 Z"/></g>
<g><path style="opacity:1" fill="#fcc102" d="M 103.5,353.5 C 135.004,353.168 166.338,353.502 197.5,354.5C 192.522,364.976 192.189,375.643 196.5,386.5C 184.519,387.832 172.185,388.499 159.5,388.5C 146.101,388.64 132.767,388.14 119.5,387C 105.988,379.807 100.654,368.64 103.5,353.5 Z"/></g>
<g><path style="opacity:1" fill="#e9a309" d="M 357.5,352.5 C 317.665,353.167 277.665,353.833 237.5,354.5C 234.409,369.485 239.743,380.318 253.5,387C 315.108,388.489 376.775,388.989 438.5,388.5C 437.737,389.268 436.737,389.768 435.5,390C 400,390.167 364.5,390.333 329,390.5C 292.441,390.657 255.941,390.157 219.5,389C 206.077,379.104 205.077,368.104 216.5,356C 218.5,355 220.5,354 222.5,353C 267.499,352.5 312.499,352.333 357.5,352.5 Z"/></g>
<g><path style="opacity:1" fill="#fef4f3" d="M 490.5,381.5 C 490.832,419.67 490.499,457.67 489.5,495.5C 486.15,495.665 482.817,495.498 479.5,495C 490.549,478.491 488.216,464.158 472.5,452C 469.833,451 467.167,450 464.5,449C 457.508,448.5 450.508,448.334 443.5,448.5C 443.167,448.5 442.833,448.5 442.5,448.5C 445.416,445.403 448.25,442.069 451,438.5C 454.375,430.857 455.375,422.857 454,414.5C 451.801,410.103 449.635,405.769 447.5,401.5C 448.899,400.11 450.566,399.11 452.5,398.5C 457.844,398.666 463.177,398.499 468.5,398C 478.921,396.388 486.255,390.888 490.5,381.5 Z"/></g>
<g><path style="opacity:1" fill="#e8ddd8" d="M 447.5,401.5 C 449.635,405.769 451.801,410.103 454,414.5C 455.375,422.857 454.375,430.857 451,438.5C 448.25,442.069 445.416,445.403 442.5,448.5C 435.99,444.955 428.99,443.122 421.5,443C 429.007,431.061 429.341,418.894 422.5,406.5C 431.145,406.198 439.478,404.532 447.5,401.5 Z"/></g>
<g><path style="opacity:1" fill="#c69702" d="M 51.5,406.5 C 88.0022,405.17 124.669,405.17 161.5,406.5C 161.376,407.107 161.043,407.44 160.5,407.5C 129.338,406.502 98.0044,406.168 66.5,406.5C 61.5,406.5 56.5,406.5 51.5,406.5 Z"/></g>
<g><path style="opacity:1" fill="#eda509" d="M 51.5,406.5 C 56.5,406.5 61.5,406.5 66.5,406.5C 63.1242,421.89 68.4575,433.057 82.5,440C 95.7673,441.14 109.101,441.64 122.5,441.5C 135.005,441.5 147.338,441.167 159.5,440.5C 160.478,440.811 161.145,441.478 161.5,442.5C 124.838,443.667 88.1712,443.833 51.5,443C 37.9168,436.68 34.4168,426.846 41,413.5C 43.612,409.781 47.112,407.448 51.5,406.5 Z"/></g>
<g><path style="opacity:1" fill="#fcc102" d="M 66.5,406.5 C 98.0044,406.168 129.338,406.502 160.5,407.5C 155.527,418.293 155.193,429.293 159.5,440.5C 147.338,441.167 135.005,441.5 122.5,441.5C 109.101,441.64 95.7673,441.14 82.5,440C 68.4575,433.057 63.1242,421.89 66.5,406.5 Z"/></g>
<g><path style="opacity:1" fill="#e8a308" d="M 398.5,406.5 C 332.499,406.333 266.499,406.5 200.5,407C 197.191,423.715 203.525,435.049 219.5,441C 279.832,441.5 340.166,441.667 400.5,441.5C 399.737,442.268 398.737,442.768 397.5,443C 326.833,443.667 256.167,443.667 185.5,443C 172.117,437.397 168.284,427.897 174,414.5C 177.011,410.48 180.844,407.647 185.5,406C 256.668,405.168 327.668,405.335 398.5,406.5 Z"/></g>
<g><path style="opacity:1" fill="#fcc102" d="M 398.5,406.5 C 412.121,412.421 415.621,422.088 409,435.5C 406.823,438.523 403.989,440.523 400.5,441.5C 340.166,441.667 279.832,441.5 219.5,441C 203.525,435.049 197.191,423.715 200.5,407C 266.499,406.5 332.499,406.333 398.5,406.5 Z"/></g>
<g><path style="opacity:1" fill="#e8ded8" d="M 443.5,448.5 C 450.508,448.334 457.508,448.5 464.5,449C 467.167,450 469.833,451 472.5,452C 488.216,464.158 490.549,478.491 479.5,495C 482.817,495.498 486.15,495.665 489.5,495.5C 477.66,496.825 465.66,496.825 453.5,495.5C 462.325,477.145 458.992,461.478 443.5,448.5 Z"/></g>
<g><path style="opacity:1" fill="#eea509" d="M 98.5,458.5 C 93.886,474.153 98.886,485.653 113.5,493C 126.767,494.14 140.101,494.64 153.5,494.5C 166.185,494.499 178.519,493.832 190.5,492.5C 191.338,492.842 191.672,493.508 191.5,494.5C 155.337,495.498 119.004,495.832 82.5,495.5C 71.8566,491.558 67.3566,483.892 69,472.5C 74.8552,459.918 84.6886,455.251 98.5,458.5 Z"/></g>
<g><path style="opacity:1" fill="#fcc102" d="M 98.5,458.5 C 129.84,458.167 161.174,458.5 192.5,459.5C 186.612,470.16 185.945,481.16 190.5,492.5C 178.519,493.832 166.185,494.499 153.5,494.5C 140.101,494.64 126.767,494.14 113.5,493C 98.886,485.653 93.886,474.153 98.5,458.5 Z"/></g>
<g><path style="opacity:1" fill="#e8a109" d="M 231.5,458.5 C 227.621,476.924 234.621,488.757 252.5,494C 312.166,494.5 371.832,494.667 431.5,494.5C 430.737,495.268 429.737,495.768 428.5,496C 357.833,496.667 287.167,496.667 216.5,496C 203.271,490.315 199.437,480.815 205,467.5C 211.878,459.115 220.712,456.115 231.5,458.5 Z"/></g>
<g><path style="opacity:1" fill="#fcc102" d="M 231.5,458.5 C 297.168,458.333 362.834,458.5 428.5,459C 443.148,464.608 446.981,474.442 440,488.5C 437.823,491.523 434.989,493.523 431.5,494.5C 371.832,494.667 312.166,494.5 252.5,494C 234.621,488.757 227.621,476.924 231.5,458.5 Z"/></g>
<g><path style="opacity:1" fill="#bd8407" d="M 191.5,494.5 C 192.043,494.56 192.376,494.893 192.5,495.5C 155.669,496.83 119.002,496.83 82.5,495.5C 119.004,495.832 155.337,495.498 191.5,494.5 Z"/></g>
</svg>
