<svg class="svg_logo" xmlns="http://www.w3.org/2000/svg" version="1.1" width="512px" height="512px" style="shape-rendering:geometricPrecision; text-rendering:geometricPrecision; image-rendering:optimizeQuality; fill-rule:evenodd; clip-rule:evenodd" xmlns:xlink="http://www.w3.org/1999/xlink">
<g><path style="opacity:0.92" fill="var(--svg_colr)" id="color" d="M 114.5,13.5 C 116.766,13.1412 118.599,13.8078 120,15.5C 125.642,36.3995 130.808,57.3995 135.5,78.5C 130.779,79.1796 126.113,80.1796 121.5,81.5C 120.558,81.3918 119.725,81.0585 119,80.5C 113.655,59.4513 108.155,38.4513 102.5,17.5C 106.608,16.1482 110.608,14.8149 114.5,13.5 Z"/></g>
<g><path style="opacity:0.974" fill="#010101" d="M 390.5,251.5 C 385.788,246.189 380.955,246.189 376,251.5C 373.613,262.375 372.113,273.375 371.5,284.5C 370.99,287.674 369.323,290.008 366.5,291.5C 349.103,289.944 331.77,287.777 314.5,285C 309.898,283.735 307.565,280.735 307.5,276C 308.887,265.288 310.554,254.621 312.5,244C 311.154,238.159 307.487,235.492 301.5,236C 292.218,242.281 283.218,248.948 274.5,256C 269.676,258.446 265.509,257.613 262,253.5C 251.946,240.446 242.28,227.113 233,213.5C 232.516,211.087 232.85,208.754 234,206.5C 243.667,198.833 253.333,191.167 263,183.5C 264.762,176.189 261.929,172.022 254.5,171C 246.167,170 237.833,169 229.5,168C 223.701,167.366 220.367,164.2 219.5,158.5C 221.994,142.543 224.161,126.543 226,110.5C 227.58,105.706 230.913,103.706 236,104.5C 247.153,106.142 258.32,107.309 269.5,108C 275.453,105.475 276.953,101.309 274,95.5C 267.667,87.1667 261.333,78.8333 255,70.5C 253.798,68.3225 253.298,65.9892 253.5,63.5C 189.591,67.2596 146.591,99.0929 124.5,159C 109.886,214.889 123.552,262.556 165.5,302C 172.324,307.245 179.324,312.245 186.5,317C 197.501,326.006 204.334,337.506 207,351.5C 207.333,366.167 207.667,380.833 208,395.5C 209.859,401.36 213.693,405.193 219.5,407C 243.5,407.667 267.5,407.667 291.5,407C 297.333,405.167 301.167,401.333 303,395.5C 303.333,380.833 303.667,366.167 304,351.5C 307.11,337.778 313.944,326.278 324.5,317C 331.524,312.487 338.191,307.487 344.5,302C 345.5,301.333 346.5,301.333 347.5,302C 348.411,304.415 350.078,305.915 352.5,306.5C 353.793,308.296 355.293,309.963 357,311.5C 357.667,312.167 357.667,312.833 357,313.5C 349.731,320.104 341.898,325.937 333.5,331C 324.961,338.936 320.461,348.769 320,360.5C 319.667,373.5 319.333,386.5 319,399.5C 316.659,408.173 311.659,414.84 304,419.5C 303.667,436.5 303.333,453.5 303,470.5C 299.5,483.333 291.333,491.5 278.5,495C 263.167,495.667 247.833,495.667 232.5,495C 219.667,491.5 211.5,483.333 208,470.5C 207.667,453.5 207.333,436.5 207,419.5C 199.341,414.84 194.341,408.173 192,399.5C 191.667,389.833 191.333,380.167 191,370.5C 187.5,374 184,377.5 180.5,381C 176.402,383.886 172.069,384.219 167.5,382C 160.97,377.304 154.303,372.804 147.5,368.5C 145.354,376.418 143.521,384.418 142,392.5C 141.31,395.196 139.81,397.363 137.5,399C 125.224,400.584 112.891,400.917 100.5,400C 97.5056,399.594 95.339,398.094 94,395.5C 91.9112,386.371 89.5778,377.371 87,368.5C 79.747,373.21 72.5803,378.043 65.5,383C 62.8333,383.667 60.1667,383.667 57.5,383C 47.6667,374.5 38.5,365.333 30,355.5C 29.3333,352.833 29.3333,350.167 30,347.5C 34.4618,340.074 39.2952,332.908 44.5,326C 34.8479,323.466 25.1813,320.799 15.5,318C 14.283,316.352 13.4497,314.519 13,312.5C 12.3333,301.167 12.3333,289.833 13,278.5C 13.4497,276.481 14.283,274.648 15.5,273C 25.1813,270.201 34.8479,267.534 44.5,265C 38.3002,256.815 32.9668,248.148 28.5,239C 29.1905,237.933 29.6905,236.766 30,235.5C 38.5,225.667 47.6667,216.5 57.5,208C 60.1667,207.333 62.8333,207.333 65.5,208C 72.6825,213.237 80.0158,217.904 87.5,222C 89.6199,212.4 92.1199,202.9 95,193.5C 97.5645,191.821 100.398,191.154 103.5,191.5C 108.07,136.165 134.07,94.3319 181.5,66C 209.651,51.1307 239.651,44.7973 271.5,47C 279.167,41.3333 286.833,35.6667 294.5,30C 298.25,27.9565 301.916,28.1232 305.5,30.5C 312.243,38.9878 318.743,47.6544 325,56.5C 329.625,60.6459 333.959,60.3125 338,55.5C 340.037,45.2402 341.704,34.9069 343,24.5C 343.663,17.8378 347.329,14.8378 354,15.5C 369.857,17.4796 385.69,19.6462 401.5,22C 405.802,23.9351 407.802,27.2684 407.5,32C 405.576,43.4559 404.41,54.9559 404,66.5C 406.707,70.0349 410.207,71.2016 414.5,70C 422.833,63.6667 431.167,57.3333 439.5,51C 443.167,49 446.833,49 450.5,51C 461.03,63.8958 471.196,77.0625 481,90.5C 483.167,94.9962 482.667,99.1629 479.5,103C 470.215,109.229 461.382,116.062 453,123.5C 450.683,128.715 452.183,132.548 457.5,135C 468.53,136.48 479.53,138.147 490.5,140C 494.537,142.075 496.204,145.408 495.5,150C 493.52,165.857 491.354,181.69 489,197.5C 487.279,202.448 483.779,204.448 478.5,203.5C 468.305,202.401 458.138,201.067 448,199.5C 443.319,199.845 440.486,202.345 439.5,207C 446.248,217.423 453.415,227.589 461,237.5C 462.189,241.709 461.356,245.376 458.5,248.5C 446.691,257.141 435.025,265.975 423.5,275C 417.786,279.824 412.286,279.657 407,274.5C 401.281,266.955 395.781,259.288 390.5,251.5 Z M 366.5,107.5 C 386.843,112.344 399.343,125.01 404,145.5C 406.066,156.879 403.9,167.213 397.5,176.5C 393.39,150.621 383.057,127.621 366.5,107.5 Z M 110.5,264.5 C 113.119,264.232 115.619,264.565 118,265.5C 125.356,280.684 134.856,294.351 146.5,306.5C 136.162,326.113 120.829,331.28 100.5,322C 85.6327,310.156 82.466,295.656 91,278.5C 96.0048,271.649 102.505,266.982 110.5,264.5 Z"/></g>
<g><path style="opacity:1" fill="#0fbadd" d="M 358.5,32.5 C 369.024,34.6694 379.69,36.0027 390.5,36.5C 388.703,45.0783 387.37,53.745 386.5,62.5C 388.149,78.9893 397.149,87.156 413.5,87C 417.019,86.6047 420.352,85.6047 423.5,84C 429.167,79.6667 434.833,75.3333 440.5,71C 441.759,70.0181 443.092,69.6848 444.5,70C 450.693,78.0262 456.693,86.1928 462.5,94.5C 454.856,100.31 447.356,106.31 440,112.5C 430.707,129.621 434.873,142.455 452.5,151C 461.131,152.495 469.798,153.662 478.5,154.5C 477.07,165.174 475.737,175.841 474.5,186.5C 467.812,185.902 461.146,185.069 454.5,184C 439.624,181.018 429.457,186.518 424,200.5C 423.449,205.545 423.782,210.545 425,215.5C 430.253,223.674 435.753,231.674 441.5,239.5C 434.238,246.136 426.572,252.303 418.5,258C 417.216,258.684 416.049,258.517 415,257.5C 409.529,249.369 403.362,241.869 396.5,235C 379.64,227.019 367.473,231.519 360,248.5C 358.318,257.106 357.151,265.773 356.5,274.5C 345.823,273.261 335.157,271.927 324.5,270.5C 326.607,259.252 327.441,247.919 327,236.5C 321.871,223.679 312.371,218.179 298.5,220C 288.536,224.961 279.369,231.128 271,238.5C 265,230.5 259,222.5 253,214.5C 252.251,213.365 252.417,212.365 253.5,211.5C 260.81,206.024 267.977,200.357 275,194.5C 283.37,179.48 280.537,167.314 266.5,158C 256.703,155.876 246.869,154.042 237,152.5C 237.46,142.11 238.626,131.777 240.5,121.5C 250.821,122.761 261.154,123.595 271.5,124C 286.364,119.786 292.864,109.953 291,94.5C 286.146,85.64 280.479,77.3066 274,69.5C 273.37,67.0966 274.203,65.2633 276.5,64C 283.641,59.0262 290.641,53.8596 297.5,48.5C 304.038,56.3861 310.705,64.2195 317.5,72C 331.298,79.8409 342.798,77.3409 352,64.5C 353.197,61.9109 354.197,59.2442 355,56.5C 356.122,48.4799 357.289,40.4799 358.5,32.5 Z M 366.5,107.5 C 386.843,112.344 399.343,125.01 404,145.5C 406.066,156.879 403.9,167.213 397.5,176.5C 393.39,150.621 383.057,127.621 366.5,107.5 Z"/></g>
<g><path style="opacity:0.906" fill="var(--svg_colr)" id="color" d="M 43.5,56.5 C 62.5384,69.4455 81.3717,82.7788 100,96.5C 100.667,97.1667 100.667,97.8333 100,98.5C 97.0447,102.244 94.2114,106.078 91.5,110C 89.7215,109.956 88.0548,109.289 86.5,108C 69.3333,95.5 52.1667,83 35,70.5C 34.3333,69.8333 34.3333,69.1667 35,68.5C 38.0887,64.6464 40.922,60.6464 43.5,56.5 Z"/></g>
<g><path style="opacity:1" fill="#e19b0f" d="M 366.5,291.5 C 362.539,297.129 357.873,302.129 352.5,306.5C 350.078,305.915 348.411,304.415 347.5,302C 346.5,301.333 345.5,301.333 344.5,302C 338.191,307.487 331.524,312.487 324.5,317C 313.944,326.278 307.11,337.778 304,351.5C 303.667,366.167 303.333,380.833 303,395.5C 301.167,401.333 297.333,405.167 291.5,407C 267.5,407.667 243.5,407.667 219.5,407C 213.693,405.193 209.859,401.36 208,395.5C 207.667,380.833 207.333,366.167 207,351.5C 204.334,337.506 197.501,326.006 186.5,317C 179.324,312.245 172.324,307.245 165.5,302C 123.552,262.556 109.886,214.889 124.5,159C 146.591,99.0929 189.591,67.2596 253.5,63.5C 253.298,65.9892 253.798,68.3225 255,70.5C 261.333,78.8333 267.667,87.1667 274,95.5C 276.953,101.309 275.453,105.475 269.5,108C 258.32,107.309 247.153,106.142 236,104.5C 230.913,103.706 227.58,105.706 226,110.5C 224.161,126.543 221.994,142.543 219.5,158.5C 220.367,164.2 223.701,167.366 229.5,168C 237.833,169 246.167,170 254.5,171C 261.929,172.022 264.762,176.189 263,183.5C 253.333,191.167 243.667,198.833 234,206.5C 232.85,208.754 232.516,211.087 233,213.5C 242.28,227.113 251.946,240.446 262,253.5C 265.509,257.613 269.676,258.446 274.5,256C 283.218,248.948 292.218,242.281 301.5,236C 307.487,235.492 311.154,238.159 312.5,244C 310.554,254.621 308.887,265.288 307.5,276C 307.565,280.735 309.898,283.735 314.5,285C 331.77,287.777 349.103,289.944 366.5,291.5 Z"/></g>
<g><path style="opacity:0.99" fill="#020303" d="M 351.5,89.5 C 388.777,90.6072 411.944,109.274 421,145.5C 422.338,180.003 406.838,203.17 374.5,215C 338.889,221.945 313.389,209.112 298,176.5C 287.048,137.239 300.214,109.405 337.5,93C 342.224,91.5058 346.891,90.3391 351.5,89.5 Z M 366.5,107.5 C 386.843,112.344 399.343,125.01 404,145.5C 406.066,156.879 403.9,167.213 397.5,176.5C 393.39,150.621 383.057,127.621 366.5,107.5 Z"/></g>
<g><path style="opacity:1" fill="#040200" d="M 193.5,105.5 C 194.822,105.33 195.989,105.663 197,106.5C 199.3,110.268 201.467,114.102 203.5,118C 168.444,144.294 154.611,179.128 162,222.5C 169.615,249.436 185.448,269.936 209.5,284C 229.202,290.24 244.369,302.073 255,319.5C 260.053,329.605 262.886,340.271 263.5,351.5C 258.167,351.5 252.833,351.5 247.5,351.5C 246.445,332.224 237.778,317.391 221.5,307C 163.64,282.451 138.474,238.951 146,176.5C 153.401,146.985 169.235,123.318 193.5,105.5 Z"/></g>
<g><path style="opacity:0.992" fill="#e19c0f" d="M 366.5,107.5 C 383.057,127.621 393.39,150.621 397.5,176.5C 391.451,188.558 381.784,196.391 368.5,200C 337.905,204.077 318.405,191.244 310,161.5C 307.698,135.593 318.531,117.76 342.5,108C 350.555,105.155 358.555,104.989 366.5,107.5 Z"/></g>
<g><path style="opacity:0.928" fill="var(--svg_colr)" id="color" d="M 82.5,135.5 C 83.8333,135.5 85.1667,135.5 86.5,135.5C 87.1796,140.221 88.1796,144.887 89.5,149.5C 89.3918,150.442 89.0585,151.275 88.5,152C 67.2247,157.486 45.8913,162.652 24.5,167.5C 23.8204,162.779 22.8204,158.113 21.5,153.5C 21.6082,152.558 21.9415,151.725 22.5,151C 42.7024,146.117 62.7024,140.95 82.5,135.5 Z"/></g>
<g><path style="opacity:1" fill="#c6dcfb" d="M 104.5,221.5 C 106.963,230.35 109.297,239.35 111.5,248.5C 90.0091,252.153 76.1758,264.487 70,285.5C 66.6927,312.071 77.1927,330.571 101.5,341C 126.691,347.149 146.191,339.316 160,317.5C 167.619,322.784 174.952,328.451 182,334.5C 185.132,338.466 187.632,342.799 189.5,347.5C 184.137,353.696 178.304,359.363 172,364.5C 165.567,359.699 158.734,355.532 151.5,352C 141.609,350.526 134.776,354.359 131,363.5C 129.293,370.073 128.127,376.74 127.5,383.5C 120.833,383.5 114.167,383.5 107.5,383.5C 106.197,376.15 104.697,368.817 103,361.5C 98.5806,353.376 91.7473,350.21 82.5,352C 76.6631,355.418 70.9964,359.084 65.5,363C 64.2411,363.982 62.9078,364.315 61.5,364C 56.7865,359.622 52.4532,354.956 48.5,350C 52.5357,343.432 56.7024,336.932 61,330.5C 62.8023,321.275 59.6356,314.442 51.5,310C 44.201,308.307 36.8677,306.807 29.5,305.5C 29.5,298.833 29.5,292.167 29.5,285.5C 36.8677,284.193 44.201,282.693 51.5,281C 59.6182,276.591 62.7849,269.758 61,260.5C 56.7024,254.068 52.5357,247.568 48.5,241C 52.4532,236.044 56.7865,231.378 61.5,227C 68.5752,230.023 75.2419,234.023 81.5,239C 95.1627,240.852 102.829,235.018 104.5,221.5 Z"/></g>
<g><path style="opacity:0.928" fill="#db970f" d="M 390.5,251.5 C 385.444,263.284 379.111,274.284 371.5,284.5C 372.113,273.375 373.613,262.375 376,251.5C 380.955,246.189 385.788,246.189 390.5,251.5 Z"/></g>
<g><path style="opacity:1" fill="var(--svg_colr)" id="color" d="M 407.5,311.5 C 426.167,311.5 444.833,311.5 463.5,311.5C 463.5,316.833 463.5,322.167 463.5,327.5C 444.833,327.5 426.167,327.5 407.5,327.5C 407.5,322.167 407.5,316.833 407.5,311.5 Z"/></g>
<g><path style="opacity:0.902" fill="var(--svg_colr)" id="color" d="M 404.5,352.5 C 420.96,365.788 437.293,379.288 453.5,393C 449.785,397.593 445.952,402.093 442,406.5C 425.833,393 409.667,379.5 393.5,366C 397.295,361.561 400.961,357.061 404.5,352.5 Z"/></g>
<g><path style="opacity:1" fill="#000000" d="M 247.5,367.5 C 252.833,367.5 258.167,367.5 263.5,367.5C 263.5,375.5 263.5,383.5 263.5,391.5C 258.167,391.5 252.833,391.5 247.5,391.5C 247.5,383.5 247.5,375.5 247.5,367.5 Z"/></g>
<g><path style="opacity:1" fill="var(--svg_colr)" id="color" d="M 359.5,375.5 C 364.833,375.5 370.167,375.5 375.5,375.5C 375.5,394.167 375.5,412.833 375.5,431.5C 370.167,431.5 364.833,431.5 359.5,431.5C 359.5,412.833 359.5,394.167 359.5,375.5 Z"/></g>
<g><path style="opacity:1" fill="#eaebea" d="M 223.5,423.5 C 244.833,423.5 266.167,423.5 287.5,423.5C 287.5,428.833 287.5,434.167 287.5,439.5C 266.167,439.5 244.833,439.5 223.5,439.5C 223.5,434.167 223.5,428.833 223.5,423.5 Z"/></g>
<g><path style="opacity:1" fill="#e9e9e9" d="M 223.5,455.5 C 244.833,455.5 266.167,455.5 287.5,455.5C 289.413,466.51 285.413,474.344 275.5,479C 262.167,479.667 248.833,479.667 235.5,479C 229.693,477.193 225.859,473.36 224,467.5C 223.501,463.514 223.334,459.514 223.5,455.5 Z"/></g>
</svg>
