<svg class="svg_logo" xmlns="http://www.w3.org/2000/svg" version="1.1" width="512px" height="512px" style="shape-rendering:geometricPrecision; text-rendering:geometricPrecision; image-rendering:optimizeQuality; fill-rule:evenodd; clip-rule:evenodd" xmlns:xlink="http://www.w3.org/1999/xlink">
<g><path style="opacity:0.94" fill="var(--svg_colr)" id="color" d="M 32.5,-0.5 C 38.5,-0.5 44.5,-0.5 50.5,-0.5C 50.5,21.8333 50.5,44.1667 50.5,66.5C 55.8333,66.5 61.1667,66.5 66.5,66.5C 66.5,52.5 66.5,38.5 66.5,24.5C 72.1667,24.5 77.8333,24.5 83.5,24.5C 83.3334,40.5035 83.5001,56.5035 84,72.5C 88.4132,80.995 93.0799,89.3283 98,97.5C 105.135,89.3635 112.635,81.5302 120.5,74C 129.071,67.4638 137.905,61.2972 147,55.5C 160.556,80.1115 173.723,104.945 186.5,130C 173.983,139.186 163.483,150.353 155,163.5C 146.926,178.128 142.76,193.794 142.5,210.5C 114.167,210.5 85.8333,210.5 57.5,210.5C 57.7898,175.138 67.4565,142.638 86.5,113C 81.0405,103.915 75.7071,94.7486 70.5,85.5C 46.8427,84.5003 23.1761,84.1669 -0.5,84.5C -0.5,70.1667 -0.5,55.8333 -0.5,41.5C 5.16667,41.5 10.8333,41.5 16.5,41.5C 16.5,49.8333 16.5,58.1667 16.5,66.5C 21.8333,66.5 27.1667,66.5 32.5,66.5C 32.5,44.1667 32.5,21.8333 32.5,-0.5 Z M 91.5,141.5 C 91.0613,161.564 100.728,170.064 120.5,167C 133.386,160.312 137.219,150.145 132,136.5C 127.757,129.623 121.59,125.623 113.5,124.5C 111.374,121.081 109.374,117.581 107.5,114C 116.5,102.333 126.833,92 138.5,83C 139.784,82.3162 140.951,82.4829 142,83.5C 149.302,97.2705 156.468,111.104 163.5,125C 150.311,136.877 140.144,151.044 133,167.5C 129.733,175.567 127.567,183.9 126.5,192.5C 109.833,192.5 93.1667,192.5 76.5,192.5C 78.5032,174.503 83.5032,157.503 91.5,141.5 Z M 110.5,143.5 C 116.148,143.311 117.482,145.478 114.5,150C 109.791,150.082 108.458,147.915 110.5,143.5 Z"/></g>
<g><path style="opacity:0.938" fill="var(--svg_colr)" id="color" d="M 503.5,41.5 C 502.527,43.9479 502.194,46.6146 502.5,49.5C 468.996,49.1684 435.662,49.5017 402.5,50.5C 402.167,50.5 401.833,50.5 401.5,50.5C 392.161,50.3335 382.827,50.5002 373.5,51C 366.833,60.3333 360.167,69.6667 353.5,79C 401.468,125.745 419.468,182.245 407.5,248.5C 401.64,245.647 396.307,241.981 391.5,237.5C 398.826,183.316 383.826,136.483 346.5,97C 344.945,95.7107 343.279,95.044 341.5,95C 346.544,107.085 343.544,116.752 332.5,124C 318.519,129.009 308.352,124.842 302,111.5C 299.774,91.8876 308.608,82.221 328.5,82.5C 294.681,57.3759 256.681,47.2092 214.5,52C 205.058,53.3884 195.725,55.2217 186.5,57.5C 193.611,72.3856 201.277,87.0523 209.5,101.5C 260.458,93.7487 300.291,111.082 329,153.5C 340.803,174.35 345.636,196.683 343.5,220.5C 337.409,220.789 331.409,220.455 325.5,219.5C 328.252,182.174 314.252,153.007 283.5,132C 257.65,116.795 230.484,113.961 202,123.5C 201.5,123.167 201,122.833 200.5,122.5C 187.167,98.1667 173.833,73.8333 160.5,49.5C 205.041,29.5507 250.374,27.7174 296.5,44C 311.899,49.7615 326.066,57.5949 339,67.5C 347.412,56.3433 355.578,45.0099 363.5,33.5C 410.162,32.5001 456.829,32.1667 503.5,32.5C 503.5,35.5 503.5,38.5 503.5,41.5 Z M 320.5,101.5 C 325.975,101.44 327.309,103.606 324.5,108C 319.124,108.069 317.791,105.902 320.5,101.5 Z"/></g>
<g><path style="opacity:1" fill="#4f3e1e" d="M 503.5,41.5 C 503.5,44.5 503.5,47.5 503.5,50.5C 469.833,50.5 436.167,50.5 402.5,50.5C 435.662,49.5017 468.996,49.1684 502.5,49.5C 502.194,46.6146 502.527,43.9479 503.5,41.5 Z"/></g>
<g><path style="opacity:1" fill="#eeba5d" d="M 401.5,50.5 C 401.833,50.5 402.167,50.5 402.5,50.5C 436.167,50.5 469.833,50.5 503.5,50.5C 503.5,55.8333 503.5,61.1667 503.5,66.5C 489.167,66.5 474.833,66.5 460.5,66.5C 460.178,72.358 460.511,78.0247 461.5,83.5C 475.167,83.5 488.833,83.5 502.5,83.5C 502.833,83.5 503.167,83.5 503.5,83.5C 503.5,89.1667 503.5,94.8333 503.5,100.5C 469.5,100.5 435.5,100.5 401.5,100.5C 401.5,94.8333 401.5,89.1667 401.5,83.5C 401.833,83.5 402.167,83.5 402.5,83.5C 416.5,83.5 430.5,83.5 444.5,83.5C 444.5,78.1667 444.5,72.8333 444.5,67.5C 430.343,66.5041 416.01,66.1707 401.5,66.5C 401.5,61.1667 401.5,55.8333 401.5,50.5 Z"/></g>
<g><path style="opacity:1" fill="#70582c" d="M 401.5,66.5 C 416.01,66.1707 430.343,66.5041 444.5,67.5C 430.5,67.5 416.5,67.5 402.5,67.5C 402.5,72.8333 402.5,78.1667 402.5,83.5C 402.167,83.5 401.833,83.5 401.5,83.5C 401.5,77.8333 401.5,72.1667 401.5,66.5 Z"/></g>
<g><path style="opacity:1" fill="#6f572b" d="M 503.5,66.5 C 503.5,72.1667 503.5,77.8333 503.5,83.5C 503.167,83.5 502.833,83.5 502.5,83.5C 502.5,78.1667 502.5,72.8333 502.5,67.5C 488.833,67.5 475.167,67.5 461.5,67.5C 461.5,72.8333 461.5,78.1667 461.5,83.5C 460.511,78.0247 460.178,72.358 460.5,66.5C 474.833,66.5 489.167,66.5 503.5,66.5 Z"/></g>
<g><path style="opacity:1" fill="var(--svg_colr)" id="color" d="M 444.5,67.5 C 444.5,72.8333 444.5,78.1667 444.5,83.5C 430.5,83.5 416.5,83.5 402.5,83.5C 402.5,78.1667 402.5,72.8333 402.5,67.5C 416.5,67.5 430.5,67.5 444.5,67.5 Z"/></g>
<g><path style="opacity:1" fill="var(--svg_colr)" id="color" d="M 502.5,83.5 C 488.833,83.5 475.167,83.5 461.5,83.5C 461.5,78.1667 461.5,72.8333 461.5,67.5C 475.167,67.5 488.833,67.5 502.5,67.5C 502.5,72.8333 502.5,78.1667 502.5,83.5 Z"/></g>
<g><path style="opacity:0.983" fill="var(--svg_colr)" id="color" d="M 401.5,100.5 C 435.5,100.5 469.5,100.5 503.5,100.5C 503.5,106.167 503.5,111.833 503.5,117.5C 469.5,117.5 435.5,117.5 401.5,117.5C 401.5,111.833 401.5,106.167 401.5,100.5 Z"/></g>
<g><path style="opacity:0.997" fill="#eebb5d" d="M 325.5,219.5 C 331.409,220.455 337.409,220.789 343.5,220.5C 360.837,222.611 376.837,228.277 391.5,237.5C 396.307,241.981 401.64,245.647 407.5,248.5C 447.602,289.431 456.602,336.431 434.5,389.5C 430.978,394.545 427.978,399.878 425.5,405.5C 418.563,413.774 411.23,421.774 403.5,429.5C 402.448,429.351 401.448,429.517 400.5,430C 396.099,433.188 391.766,436.355 387.5,439.5C 349.999,459.771 311.999,460.604 273.5,442C 249.79,428.791 232.123,409.958 220.5,385.5C 219.072,379.216 217.072,373.216 214.5,367.5C 210.157,350.637 209.491,333.637 212.5,316.5C 213.962,310.978 215.296,305.311 216.5,299.5C 235.808,249.884 272.142,223.218 325.5,219.5 Z M 318.5,268.5 C 353.393,266.356 378.226,281.023 393,312.5C 403.428,347.888 393.595,376.055 363.5,397C 334.131,411.88 306.798,408.88 281.5,388C 255.92,360.248 252.753,330.082 272,297.5C 283.811,281.848 299.311,272.181 318.5,268.5 Z"/></g>
<g><path style="opacity:0.937" fill="var(--svg_colr)" id="color" d="M 216.5,299.5 C 215.296,305.311 213.962,310.978 212.5,316.5C 171.797,307.801 144.464,283.801 130.5,244.5C 113.513,243.501 96.5131,243.167 79.5,243.5C 85.3461,270.528 97.5128,294.195 116,314.5C 116.87,313.892 117.37,313.059 117.5,312C 114.962,295.926 121.795,286.759 138,284.5C 151.203,285.703 158.37,292.87 159.5,306C 157.28,322.881 147.78,329.714 131,326.5C 128.976,326.8 128.476,327.633 129.5,329C 154.049,349.937 182.382,362.77 214.5,367.5C 217.072,373.216 219.072,379.216 220.5,385.5C 179.917,382.285 144.75,366.952 115,339.5C 104.374,347.79 94.0407,356.457 84,365.5C 83.5001,380.83 83.3334,396.163 83.5,411.5C 77.8333,411.5 72.1667,411.5 66.5,411.5C 66.3334,392.83 66.5001,374.164 67,355.5C 78.6713,345.992 90.1713,336.325 101.5,326.5C 76.5194,297.521 62.1861,263.854 58.5,225.5C 86.8353,225.333 115.169,225.5 143.5,226C 153.315,264.981 177.648,289.481 216.5,299.5 Z M 136.5,302.5 C 140.707,302.694 142.04,304.694 140.5,308.5C 134.344,309.946 133.011,307.946 136.5,302.5 Z"/></g>
<g><path style="opacity:0.969" fill="var(--svg_colr)" id="color" d="M 313.5,251.5 C 357.987,247.648 389.82,265.648 409,305.5C 421.478,344.424 412.645,377.591 382.5,405C 352.953,426.15 321.62,429.15 288.5,414C 250.963,391.096 236.463,357.929 245,314.5C 256.245,280.81 279.078,259.81 313.5,251.5 Z M 318.5,268.5 C 299.311,272.181 283.811,281.848 272,297.5C 252.753,330.082 255.92,360.248 281.5,388C 306.798,408.88 334.131,411.88 363.5,397C 393.595,376.055 403.428,347.888 393,312.5C 378.226,281.023 353.393,266.356 318.5,268.5 Z"/></g>
<g><path style="opacity:0.931" fill="var(--svg_colr)" id="color" d="M 434.5,389.5 C 457.001,411.5 480.001,433 503.5,454C 506.805,457.464 509.472,461.297 511.5,465.5C 511.5,470.5 511.5,475.5 511.5,480.5C 505.5,495.167 495.167,505.5 480.5,511.5C 476.5,511.5 472.5,511.5 468.5,511.5C 465.437,510.301 462.437,508.801 459.5,507C 435.63,484.295 411.63,461.795 387.5,439.5C 391.766,436.355 396.099,433.188 400.5,430C 401.448,429.517 402.448,429.351 403.5,429.5C 425.302,450.467 447.302,471.3 469.5,492C 472.366,493.457 475.366,493.79 478.5,493C 486.575,488.757 491.909,482.257 494.5,473.5C 493.902,472.205 493.402,470.872 493,469.5C 470.302,448.3 447.802,426.967 425.5,405.5C 427.978,399.878 430.978,394.545 434.5,389.5 Z"/></g>
<g><path style="opacity:0.878" fill="#42351a" d="M 83.5,428.5 C 83.5,428.167 83.5,427.833 83.5,427.5C 114.5,427.5 145.5,427.5 176.5,427.5C 176.5,433.167 176.5,438.833 176.5,444.5C 176.167,444.5 175.833,444.5 175.5,444.5C 175.5,439.167 175.5,433.833 175.5,428.5C 144.833,428.5 114.167,428.5 83.5,428.5 Z"/></g>
<g><path style="opacity:1" fill="var(--svg_colr)" id="color" d="M -0.5,427.5 C 21.8333,427.5 44.1667,427.5 66.5,427.5C 66.5,433.167 66.5,438.833 66.5,444.5C 44.1667,444.5 21.8333,444.5 -0.5,444.5C -0.5,438.833 -0.5,433.167 -0.5,427.5 Z"/></g>
<g><path style="opacity:1" fill="#ecb95c" d="M 66.5,427.5 C 72.1667,427.5 77.8333,427.5 83.5,427.5C 83.5,427.833 83.5,428.167 83.5,428.5C 83.5,433.833 83.5,439.167 83.5,444.5C 114.167,444.5 144.833,444.5 175.5,444.5C 175.833,444.5 176.167,444.5 176.5,444.5C 176.5,452.833 176.5,461.167 176.5,469.5C 175.527,467.052 175.194,464.385 175.5,461.5C 116.833,461.5 58.1667,461.5 -0.5,461.5C -0.5,455.833 -0.5,450.167 -0.5,444.5C 21.8333,444.5 44.1667,444.5 66.5,444.5C 66.5,438.833 66.5,433.167 66.5,427.5 Z"/></g>
<g><path style="opacity:1" fill="var(--svg_colr)" id="color" d="M 83.5,428.5 C 114.167,428.5 144.833,428.5 175.5,428.5C 175.5,433.833 175.5,439.167 175.5,444.5C 144.833,444.5 114.167,444.5 83.5,444.5C 83.5,439.167 83.5,433.833 83.5,428.5 Z"/></g>
<g><path style="opacity:0.981" fill="var(--svg_colr)" id="color" d="M -0.5,461.5 C 58.1667,461.5 116.833,461.5 175.5,461.5C 175.194,464.385 175.527,467.052 176.5,469.5C 176.5,472.5 176.5,475.5 176.5,478.5C 117.5,478.5 58.5,478.5 -0.5,478.5C -0.5,472.833 -0.5,467.167 -0.5,461.5 Z"/></g>
</svg>
